<svg width="848" height="313" viewBox="0 0 848 313" fill="none" xmlns="http://www.w3.org/2000/svg">
<path d="M367.253 313L296 312.524L323.855 263.961C338.93 269 358.479 269 378.028 269H392.248L367.253 313Z" fill="#3497D5"/>
<path d="M478.407 0H547.999L519.011 47.5517C504.766 44 487.369 44 469.971 44H451.203L478.407 0Z" fill="#3497D5"/>
<path d="M255.397 269H204.318V216.159H0V187.182L183.887 44H255.397V269ZM848 269H796.921V216.159H592.603V187.182L776.488 44H848V269ZM469.972 44C510.835 44 551.699 44 551.699 90.0225V222.978C551.699 269 510.835 269 469.972 269H392.248L408.709 240.022H480.188C490.403 240.022 500.619 240.023 500.619 228.091V84.9092C500.619 72.9774 490.403 72.9775 480.188 72.9775H367.812C357.597 72.9775 347.381 72.9774 347.381 84.9092V222.945L323.855 263.959C307.419 258.465 296.301 246.983 296.301 222.978V90.0225C296.301 44 337.165 44 378.028 44H469.972ZM66.4033 187.182H204.318V79.7959L66.4033 187.182ZM659.006 187.182H796.921V79.7959L659.006 187.182Z" fill="white"/>
</svg>
