<svg width="848" height="313" viewBox="0 0 848 313" fill="none" xmlns="http://www.w3.org/2000/svg">
<path d="M367.253 313L296 312.524L323.855 263.961C338.93 269 358.479 269 378.028 269H392.248L367.253 313Z" fill="#57ADE3"/>
<path d="M478.407 6.10352e-05H547.999L519.011 47.5518C504.766 44.0001 487.369 44.0001 469.971 44.0001H451.203L478.407 6.10352e-05Z" fill="#57ADE3"/>
<path fill-rule="evenodd" clip-rule="evenodd" d="M0 216.159V187.182L183.886 44.0001H255.398V269H204.318V216.159H0ZM66.4034 187.182H204.318V79.7955L66.4034 187.182ZM296.301 222.977V90.0228C296.301 44.0001 337.165 44.0001 378.028 44.0001H469.972C510.835 44.0001 551.699 44.0001 551.699 90.0228V222.977C551.699 269 510.835 269 469.972 269H392.248L408.709 240.023H480.187C490.403 240.023 500.619 240.023 500.619 228.091V84.9092C500.619 72.9773 490.403 72.9773 480.187 72.9773H367.812C357.597 72.9773 347.381 72.9773 347.381 84.9092V222.947L323.855 263.961C307.419 258.467 296.301 246.983 296.301 222.977ZM592.602 187.182V216.159H796.92V269H848V44.0001H776.489L592.602 187.182ZM796.92 187.182H659.006L796.92 79.7955V187.182Z" fill="#1D1D1B"/>
</svg>
