<svg width="20" height="20" viewBox="0 0 20 20" fill="none" xmlns="http://www.w3.org/2000/svg">
<path d="M3.33203 6.66675C3.33203 4.30973 3.33203 3.13121 4.06426 2.39898C4.7965 1.66675 5.97501 1.66675 8.33203 1.66675H11.6654C14.0224 1.66675 15.2009 1.66675 15.9331 2.39898C16.6654 3.13121 16.6654 4.30973 16.6654 6.66675V13.3334C16.6654 15.6904 16.6654 16.8689 15.9331 17.6012C15.2009 18.3334 14.0224 18.3334 11.6654 18.3334H8.33203C5.97501 18.3334 4.7965 18.3334 4.06426 17.6012C3.33203 16.8689 3.33203 15.6904 3.33203 13.3334V6.66675Z" stroke="#1D1D1B"/>
<path d="M16.5802 13.3333H6.58018C5.8052 13.3333 5.41771 13.3333 5.0998 13.4184C4.23707 13.6496 3.5632 14.3235 3.33203 15.1862" stroke="#1D1D1B"/>
<path d="M6.66797 5.83325H13.3346" stroke="#1D1D1B" stroke-linecap="round"/>
<path d="M6.66797 8.75H10.8346" stroke="#1D1D1B" stroke-linecap="round"/>
</svg>
