<svg width="40" height="40" viewBox="0 0 40 40" fill="none" xmlns="http://www.w3.org/2000/svg">
<path d="M36.6664 21.1631C36.664 23.6124 36.6453 25.6941 36.5061 27.4024C36.3446 29.3846 36.0136 31.041 35.2729 32.4166C34.9461 33.0234 34.5446 33.5667 34.0558 34.0556C32.6685 35.4429 30.901 36.0713 28.6611 36.3725C26.4727 36.6667 23.668 36.6667 20.0891 36.6666H19.9112C16.3323 36.6667 13.5276 36.6667 11.3392 36.3725C9.09934 36.0713 7.33186 35.4429 5.94456 34.0556C4.71467 32.8257 4.07954 31.2949 3.74179 29.396C3.41001 27.5306 3.34931 25.2098 3.3367 22.3279C3.3335 21.5948 3.3335 20.8195 3.3335 20.0015V19.911C3.33348 16.3321 3.33346 13.5274 3.62768 11.3391C3.92882 9.09916 4.55726 7.33168 5.94456 5.94438C7.33186 4.55708 9.09934 3.92864 11.3392 3.62749C13.2854 3.36585 15.7893 3.3369 18.8369 3.33371C19.4791 3.33303 20.0002 3.85391 20.0002 4.4961C20.0002 5.13829 19.4788 5.65864 18.8366 5.65932C15.746 5.66259 13.446 5.69075 11.6491 5.93234C9.6671 6.19881 8.47218 6.70562 7.589 7.58881C6.70581 8.472 6.199 9.66692 5.93252 11.6489C5.66155 13.6644 5.65908 16.3128 5.65908 20C5.65908 20.4503 5.65908 20.8857 5.65961 21.3074L7.21176 19.9492C8.62458 18.713 10.7539 18.7839 12.0814 20.1114L18.7321 26.7621C19.7976 27.8276 21.4748 27.9729 22.7076 27.1065L23.1699 26.7816C24.9439 25.5348 27.3441 25.6793 28.9558 27.1298L33.3442 31.0793C33.7858 30.1517 34.0481 28.9329 34.1882 27.2135C34.3202 25.5935 34.3384 23.6258 34.3409 21.1631C34.3415 20.5209 34.8618 20 35.504 20C36.1462 20 36.6671 20.5209 36.6664 21.1631Z" fill="#242933"/>
<path fill-rule="evenodd" clip-rule="evenodd" d="M29.1668 3.33331C25.6313 3.33331 23.8635 3.33331 22.7652 4.43166C21.6668 5.53001 21.6668 7.29778 21.6668 10.8333C21.6668 14.3688 21.6668 16.1366 22.7652 17.235C23.8635 18.3333 25.6313 18.3333 29.1668 18.3333C32.7024 18.3333 34.4701 18.3333 35.5685 17.235C36.6668 16.1366 36.6668 14.3688 36.6668 10.8333C36.6668 7.29778 36.6668 5.53001 35.5685 4.43166C34.4701 3.33331 32.7024 3.33331 29.1668 3.33331ZM32.5507 12.5505L30.0507 15.0505C29.5626 15.5387 28.7711 15.5387 28.2829 15.0505L25.7829 12.5505C25.2948 12.0624 25.2948 11.2709 25.7829 10.7828C26.2711 10.2946 27.0626 10.2946 27.5507 10.7828L27.9168 11.1489V7.49998C27.9168 6.80962 28.4765 6.24998 29.1668 6.24998C29.8572 6.24998 30.4168 6.80962 30.4168 7.49998V11.1489L30.7829 10.7828C31.2711 10.2946 32.0626 10.2946 32.5507 10.7828C33.0389 11.2709 33.0389 12.0624 32.5507 12.5505Z" fill="#242933"/>
</svg>
