<svg width="35" height="19" viewBox="0 0 35 19" fill="none" xmlns="http://www.w3.org/2000/svg">
<path d="M13.7891 18H10.9883V10.2656H3.08984V18H0.277344V0.867188H3.08984V7.875H10.9883V0.867188H13.7891V18Z" fill="#1D1D1B"/>
<path d="M27.3242 0.621094V2.73047C29.1602 2.76953 30.6211 3.08203 31.707 3.66797C32.8008 4.24609 33.5859 5.00781 34.0625 5.95312C34.5469 6.89844 34.7891 7.94922 34.7891 9.10547C34.7891 9.87109 34.6641 10.6328 34.4141 11.3906C34.1641 12.1484 33.7539 12.8398 33.1836 13.4648C32.6133 14.0898 31.8477 14.5938 30.8867 14.9766C29.9258 15.3594 28.7383 15.5664 27.3242 15.5977V18.2344H24.6992V15.5977C23.2539 15.5664 22.0508 15.3555 21.0898 14.9648C20.1289 14.5742 19.3633 14.0664 18.793 13.4414C18.2305 12.8086 17.8281 12.1172 17.5859 11.3672C17.3516 10.6094 17.2344 9.85938 17.2344 9.11719C17.2344 8.26562 17.3633 7.46094 17.6211 6.70312C17.8867 5.94531 18.3125 5.27344 18.8984 4.6875C19.4844 4.10156 20.2539 3.63672 21.207 3.29297C22.1602 2.94922 23.3242 2.76172 24.6992 2.73047V0.621094H27.3242ZM24.6992 4.99219C23.5352 5.03125 22.6055 5.22656 21.9102 5.57812C21.2148 5.92188 20.7148 6.39453 20.4102 6.99609C20.1055 7.59766 19.9531 8.29688 19.9531 9.09375C19.9531 9.94531 20.1211 10.6836 20.457 11.3086C20.793 11.9336 21.3125 12.4258 22.0156 12.7852C22.7188 13.1367 23.6133 13.332 24.6992 13.3711V4.99219ZM27.3242 4.99219V13.3711C28.4336 13.332 29.3359 13.1328 30.0312 12.7734C30.7344 12.4141 31.25 11.9219 31.5781 11.2969C31.9141 10.6641 32.082 9.92578 32.082 9.08203C32.082 8.27734 31.9297 7.57812 31.625 6.98438C31.3203 6.38281 30.8203 5.91016 30.125 5.56641C29.4297 5.22266 28.4961 5.03125 27.3242 4.99219Z" fill="#1D1D1B"/>
</svg>
