<svg width="20" height="20" viewBox="0 0 20 20" fill="none" xmlns="http://www.w3.org/2000/svg">
<path d="M5.33464 3.33301C5.33464 3.60915 5.55849 3.83301 5.83464 3.83301C6.11078 3.83301 6.33464 3.60915 6.33464 3.33301H5.33464ZM6.33464 2.08301C6.33464 1.80687 6.11078 1.58301 5.83464 1.58301C5.55849 1.58301 5.33464 1.80687 5.33464 2.08301H6.33464ZM13.668 3.33301C13.668 3.60915 13.8918 3.83301 14.168 3.83301C14.4441 3.83301 14.668 3.60915 14.668 3.33301H13.668ZM14.668 2.08301C14.668 1.80687 14.4441 1.58301 14.168 1.58301C13.8918 1.58301 13.668 1.80687 13.668 2.08301H14.668ZM2.08464 6.99967C1.80849 6.99967 1.58464 7.22353 1.58464 7.49967C1.58464 7.77582 1.80849 7.99967 2.08464 7.99967V6.99967ZM17.918 7.99967C18.1941 7.99967 18.418 7.77582 18.418 7.49967C18.418 7.22353 18.1941 6.99967 17.918 6.99967V7.99967ZM8.33464 3.33301V3.83301H11.668V3.33301V2.83301H8.33464V3.33301ZM18.3346 9.99967H17.8346V11.6663H18.3346H18.8346V9.99967H18.3346ZM11.668 18.333V17.833H8.33464V18.333V18.833H11.668V18.333ZM1.66797 11.6663H2.16797V9.99967H1.66797H1.16797V11.6663H1.66797ZM8.33464 18.333V17.833C6.74915 17.833 5.61034 17.8319 4.74369 17.7154C3.89142 17.6008 3.3776 17.3829 2.99783 17.0031L2.64428 17.3567L2.29073 17.7102C2.88727 18.3068 3.64728 18.577 4.61044 18.7065C5.55921 18.8341 6.77742 18.833 8.33464 18.833V18.333ZM1.66797 11.6663H1.16797C1.16797 13.2236 1.16691 14.4418 1.29447 15.3905C1.42396 16.3537 1.69419 17.1137 2.29073 17.7102L2.64428 17.3567L2.99783 17.0031C2.61806 16.6234 2.40013 16.1096 2.28555 15.2573C2.16903 14.3906 2.16797 13.2518 2.16797 11.6663H1.66797ZM18.3346 11.6663H17.8346C17.8346 13.2518 17.8336 14.3906 17.7171 15.2573C17.6025 16.1096 17.3845 16.6234 17.0048 17.0031L17.3583 17.3567L17.7119 17.7102C18.3084 17.1137 18.5786 16.3537 18.7081 15.3905C18.8357 14.4418 18.8346 13.2236 18.8346 11.6663H18.3346ZM11.668 18.333V18.833C13.2252 18.833 14.4434 18.8341 15.3922 18.7065C16.3553 18.577 17.1153 18.3068 17.7119 17.7102L17.3583 17.3567L17.0048 17.0031C16.625 17.3829 16.1112 17.6008 15.2589 17.7154C14.3923 17.8319 13.2535 17.833 11.668 17.833V18.333ZM11.668 3.33301V3.83301C13.2535 3.83301 14.3923 3.83407 15.2589 3.95059C16.1112 4.06517 16.625 4.2831 17.0048 4.66287L17.3583 4.30932L17.7119 3.95577C17.1153 3.35923 16.3553 3.089 15.3922 2.95951C14.4434 2.83195 13.2252 2.83301 11.668 2.83301V3.33301ZM18.3346 9.99967H18.8346C18.8346 8.44246 18.8357 7.22425 18.7081 6.27548C18.5786 5.31232 18.3084 4.5523 17.7119 3.95577L17.3583 4.30932L17.0048 4.66287C17.3845 5.04264 17.6025 5.55646 17.7171 6.40873C17.8336 7.27538 17.8346 8.41419 17.8346 9.99967H18.3346ZM8.33464 3.33301V2.83301C6.77742 2.83301 5.55921 2.83195 4.61044 2.95951C3.64728 3.089 2.88727 3.35923 2.29073 3.95577L2.64428 4.30932L2.99783 4.66287C3.3776 4.2831 3.89142 4.06517 4.74369 3.95059C5.61034 3.83407 6.74915 3.83301 8.33464 3.83301V3.33301ZM1.66797 9.99967H2.16797C2.16797 8.41419 2.16903 7.27538 2.28555 6.40873C2.40013 5.55646 2.61806 5.04264 2.99783 4.66287L2.64428 4.30932L2.29073 3.95577C1.69419 4.5523 1.42396 5.31232 1.29447 6.27548C1.16691 7.22425 1.16797 8.44246 1.16797 9.99967H1.66797ZM5.83464 3.33301H6.33464V2.08301H5.83464H5.33464V3.33301H5.83464ZM14.168 3.33301H14.668V2.08301H14.168H13.668V3.33301H14.168ZM15.0013 13.7497H14.5013C14.5013 14.1639 14.1655 14.4997 13.7513 14.4997V14.9997V15.4997C14.7178 15.4997 15.5013 14.7162 15.5013 13.7497H15.0013ZM13.7513 14.9997V14.4997C13.3371 14.4997 13.0013 14.1639 13.0013 13.7497H12.5013H12.0013C12.0013 14.7162 12.7848 15.4997 13.7513 15.4997V14.9997ZM12.5013 13.7497H13.0013C13.0013 13.3355 13.3371 12.9997 13.7513 12.9997V12.4997V11.9997C12.7848 11.9997 12.0013 12.7832 12.0013 13.7497H12.5013ZM13.7513 12.4997V12.9997C14.1655 12.9997 14.5013 13.3355 14.5013 13.7497H15.0013H15.5013C15.5013 12.7832 14.7178 11.9997 13.7513 11.9997V12.4997ZM2.08464 7.49967V7.99967H17.918V7.49967V6.99967H2.08464V7.49967Z" fill="white" fill-opacity="0.6"/>
</svg>
