<svg width="16" height="16" viewBox="0 0 16 16" fill="none" xmlns="http://www.w3.org/2000/svg">
<g clip-path="url(#clip0_2226_2804)">
<path d="M1.33337 7.99998C1.33337 4.85728 1.33337 3.28593 2.30968 2.30962C3.286 1.33331 4.85734 1.33331 8.00004 1.33331C11.1427 1.33331 12.7141 1.33331 13.6904 2.30962C14.6667 3.28593 14.6667 4.85728 14.6667 7.99998C14.6667 11.1427 14.6667 12.714 13.6904 13.6903C12.7141 14.6666 11.1427 14.6666 8.00004 14.6666C4.85734 14.6666 3.286 14.6666 2.30968 13.6903C1.33337 12.714 1.33337 11.1427 1.33337 7.99998Z" stroke="#1D1D1B" stroke-opacity="0.88"/>
<path d="M9.66669 6.33333L6.33337 9.66665M6.33336 6.33331L9.66668 9.66663" stroke="#1D1D1B" stroke-opacity="0.88" stroke-linecap="round"/>
</g>
<defs>
<clipPath id="clip0_2226_2804">
<rect width="16" height="16" fill="white"/>
</clipPath>
</defs>
</svg>
