<svg width="18" height="18" viewBox="0 0 18 18" fill="none" xmlns="http://www.w3.org/2000/svg">
<path d="M17.8332 10.6667C17.8332 10.3905 17.6093 10.1667 17.3332 10.1667C17.057 10.1667 16.8332 10.3905 16.8332 10.6667H17.8332ZM10.6665 16.8333C10.3904 16.8333 10.1665 17.0572 10.1665 17.3333C10.1665 17.6095 10.3904 17.8333 10.6665 17.8333V16.8333ZM7.33317 17.8333C7.60931 17.8333 7.83317 17.6095 7.83317 17.3333C7.83317 17.0572 7.60931 16.8333 7.33317 16.8333V17.8333ZM1.1665 10.6667C1.1665 10.3905 0.942646 10.1667 0.666504 10.1667C0.390362 10.1667 0.166504 10.3905 0.166504 10.6667H1.1665ZM7.33317 1.16666C7.60931 1.16666 7.83317 0.942799 7.83317 0.666656C7.83317 0.390514 7.60931 0.166656 7.33317 0.166656V1.16666ZM0.166504 7.33332C0.166504 7.60947 0.390362 7.83332 0.666504 7.83332C0.942646 7.83332 1.1665 7.60947 1.1665 7.33332H0.166504ZM10.6665 0.166656C10.3904 0.166656 10.1665 0.390514 10.1665 0.666656C10.1665 0.942799 10.3904 1.16666 10.6665 1.16666V0.166656ZM16.8332 7.33332C16.8332 7.60947 17.057 7.83332 17.3332 7.83332C17.6093 7.83332 17.8332 7.60947 17.8332 7.33332H16.8332ZM14.4998 3.99999C14.4998 3.72385 14.276 3.49999 13.9998 3.49999C13.7237 3.49999 13.4998 3.72385 13.4998 3.99999H14.4998ZM13.4998 8.99999C13.4998 9.27613 13.7237 9.49999 13.9998 9.49999C14.276 9.49999 14.4998 9.27613 14.4998 8.99999H13.4998ZM14.4998 10.6667C14.4998 10.3905 14.276 10.1667 13.9998 10.1667C13.7237 10.1667 13.4998 10.3905 13.4998 10.6667H14.4998ZM13.4998 14C13.4998 14.2761 13.7237 14.5 13.9998 14.5C14.276 14.5 14.4998 14.2761 14.4998 14H13.4998ZM11.1665 3.99999C11.1665 3.72385 10.9426 3.49999 10.6665 3.49999C10.3904 3.49999 10.1665 3.72385 10.1665 3.99999H11.1665ZM10.1665 8.99999C10.1665 9.27613 10.3904 9.49999 10.6665 9.49999C10.9426 9.49999 11.1665 9.27613 11.1665 8.99999H10.1665ZM12.8332 3.99999C12.8332 3.72385 12.6093 3.49999 12.3332 3.49999C12.057 3.49999 11.8332 3.72385 11.8332 3.99999H12.8332ZM11.8332 8.99999C11.8332 9.27613 12.057 9.49999 12.3332 9.49999C12.6093 9.49999 12.8332 9.27613 12.8332 8.99999H11.8332ZM11.1665 10.6667C11.1665 10.3905 10.9426 10.1667 10.6665 10.1667C10.3904 10.1667 10.1665 10.3905 10.1665 10.6667H11.1665ZM10.1665 14C10.1665 14.2761 10.3904 14.5 10.6665 14.5C10.9426 14.5 11.1665 14.2761 11.1665 14H10.1665ZM12.8332 10.6667C12.8332 10.3905 12.6093 10.1667 12.3332 10.1667C12.057 10.1667 11.8332 10.3905 11.8332 10.6667H12.8332ZM11.8332 14C11.8332 14.2761 12.057 14.5 12.3332 14.5C12.6093 14.5 12.8332 14.2761 12.8332 14H11.8332ZM8.6665 3.99999C8.6665 3.72385 8.44265 3.49999 8.1665 3.49999C7.89036 3.49999 7.6665 3.72385 7.6665 3.99999H8.6665ZM7.6665 8.99999C7.6665 9.27613 7.89036 9.49999 8.1665 9.49999C8.44265 9.49999 8.6665 9.27613 8.6665 8.99999H7.6665ZM8.6665 10.6667C8.6665 10.3905 8.44265 10.1667 8.1665 10.1667C7.89036 10.1667 7.6665 10.3905 7.6665 10.6667H8.6665ZM7.6665 14C7.6665 14.2761 7.89036 14.5 8.1665 14.5C8.44265 14.5 8.6665 14.2761 8.6665 14H7.6665ZM6.1665 3.99999C6.1665 3.72385 5.94265 3.49999 5.6665 3.49999C5.39036 3.49999 5.1665 3.72385 5.1665 3.99999H6.1665ZM5.1665 8.99999C5.1665 9.27613 5.39036 9.49999 5.6665 9.49999C5.94265 9.49999 6.1665 9.27613 6.1665 8.99999H5.1665ZM6.1665 10.6667C6.1665 10.3905 5.94265 10.1667 5.6665 10.1667C5.39036 10.1667 5.1665 10.3905 5.1665 10.6667L6.1665 10.6667ZM5.1665 14C5.1665 14.2761 5.39036 14.5 5.6665 14.5C5.94265 14.5 6.1665 14.2761 6.1665 14H5.1665ZM4.49984 3.99999C4.49984 3.72385 4.27598 3.49999 3.99984 3.49999C3.7237 3.49999 3.49984 3.72385 3.49984 3.99999H4.49984ZM3.49984 8.99999C3.49984 9.27613 3.72369 9.49999 3.99984 9.49999C4.27598 9.49999 4.49984 9.27613 4.49984 8.99999H3.49984ZM4.49984 10.6667C4.49984 10.3905 4.27598 10.1667 3.99984 10.1667C3.7237 10.1667 3.49984 10.3905 3.49984 10.6667L4.49984 10.6667ZM3.49984 14C3.49984 14.2761 3.72369 14.5 3.99984 14.5C4.27598 14.5 4.49984 14.2761 4.49984 14H3.49984ZM15.6665 9.49999C15.9426 9.49999 16.1665 9.27613 16.1665 8.99999C16.1665 8.72385 15.9426 8.49999 15.6665 8.49999V9.49999ZM2.33317 8.49999C2.05703 8.49999 1.83317 8.72385 1.83317 8.99999C1.83317 9.27613 2.05703 9.49999 2.33317 9.49999V8.49999ZM17.3332 10.6667H16.8332C16.8332 12.2521 16.8321 13.391 16.7156 14.2576C16.601 15.1099 16.3831 15.6237 16.0033 16.0035L16.3569 16.357L16.7104 16.7106C17.307 16.114 17.5772 15.354 17.7067 14.3909C17.8342 13.4421 17.8332 12.2239 17.8332 10.6667H17.3332ZM10.6665 17.3333V17.8333C12.2237 17.8333 13.4419 17.8344 14.3907 17.7068C15.3539 17.5773 16.1139 17.3071 16.7104 16.7106L16.3569 16.357L16.0033 16.0035C15.6235 16.3832 15.1097 16.6012 14.2575 16.7157C13.3908 16.8323 12.252 16.8333 10.6665 16.8333V17.3333ZM7.33317 17.3333V16.8333C5.74769 16.8333 4.60887 16.8323 3.74222 16.7157C2.88995 16.6012 2.37614 16.3832 1.99637 16.0035L1.64281 16.357L1.28926 16.7106C1.8858 17.3071 2.64582 17.5773 3.60897 17.7068C4.55775 17.8344 5.77596 17.8333 7.33317 17.8333V17.3333ZM0.666504 10.6667H0.166504C0.166504 12.2239 0.165442 13.4421 0.293001 14.3909C0.422495 15.354 0.692721 16.114 1.28926 16.7106L1.64281 16.357L1.99637 16.0035C1.6166 15.6237 1.39867 15.1099 1.28408 14.2576C1.16757 13.391 1.1665 12.2521 1.1665 10.6667H0.666504ZM7.33317 0.666656V0.166656C5.77596 0.166656 4.55775 0.165595 3.60897 0.293154C2.64582 0.422647 1.8858 0.692874 1.28926 1.28941L1.64281 1.64297L1.99637 1.99652C2.37614 1.61675 2.88995 1.39882 3.74222 1.28424C4.60887 1.16772 5.74769 1.16666 7.33317 1.16666V0.666656ZM0.666504 7.33332H1.1665C1.1665 5.74784 1.16757 4.60903 1.28408 3.74237C1.39867 2.89011 1.6166 2.37629 1.99637 1.99652L1.64281 1.64297L1.28926 1.28941C0.692721 1.88595 0.422495 2.64597 0.293001 3.60913C0.165442 4.5579 0.166504 5.77611 0.166504 7.33332H0.666504ZM10.6665 0.666656V1.16666C12.252 1.16666 13.3908 1.16772 14.2575 1.28424C15.1097 1.39882 15.6235 1.61675 16.0033 1.99652L16.3569 1.64297L16.7104 1.28941C16.1139 0.692874 15.3539 0.422647 14.3907 0.293154C13.4419 0.165595 12.2237 0.166656 10.6665 0.166656V0.666656ZM17.3332 7.33332H17.8332C17.8332 5.77611 17.8342 4.5579 17.7067 3.60913C17.5772 2.64597 17.307 1.88595 16.7104 1.28941L16.3569 1.64297L16.0033 1.99652C16.3831 2.37629 16.601 2.89011 16.7156 3.74237C16.8321 4.60903 16.8332 5.74784 16.8332 7.33332H17.3332ZM13.9998 3.99999H13.4998V8.99999H13.9998H14.4998V3.99999H13.9998ZM13.9998 10.6667H13.4998V14H13.9998H14.4998V10.6667H13.9998ZM10.6665 3.99999H10.1665V8.99999H10.6665H11.1665V3.99999H10.6665ZM12.3332 3.99999H11.8332V8.99999H12.3332H12.8332V3.99999H12.3332ZM10.6665 10.6667H10.1665V14H10.6665H11.1665V10.6667H10.6665ZM12.3332 10.6667H11.8332V14H12.3332H12.8332V10.6667H12.3332ZM8.1665 3.99999H7.6665V8.99999H8.1665H8.6665V3.99999H8.1665ZM8.1665 10.6667H7.6665V14H8.1665H8.6665V10.6667H8.1665ZM5.6665 3.99999H5.1665L5.1665 8.99999H5.6665H6.1665V3.99999H5.6665ZM5.6665 10.6667H5.1665L5.1665 14H5.6665H6.1665V10.6667L5.6665 10.6667ZM3.99984 3.99999H3.49984L3.49984 8.99999H3.99984H4.49984L4.49984 3.99999H3.99984ZM3.99984 10.6667H3.49984L3.49984 14H3.99984H4.49984L4.49984 10.6667L3.99984 10.6667ZM15.6665 8.99999V8.49999H2.33317V8.99999V9.49999H15.6665V8.99999Z" fill="#1D1D1B"/>
</svg>
