<svg width="20" height="20" viewBox="0 0 20 20" fill="none" xmlns="http://www.w3.org/2000/svg">
<path d="M18.3307 11.6667C18.3307 14.8094 18.3307 16.3807 17.3544 17.357C16.3781 18.3334 14.8068 18.3334 11.6641 18.3334" stroke="#1D1D1B" stroke-opacity="0.6" stroke-linecap="round"/>
<path d="M8.33073 18.3334C5.18803 18.3334 3.61668 18.3334 2.64037 17.357C1.66406 16.3807 1.66406 14.8094 1.66406 11.6667" stroke="#1D1D1B" stroke-opacity="0.6" stroke-linecap="round"/>
<path d="M8.33073 1.66669C5.18803 1.66669 3.61668 1.66669 2.64037 2.643C1.66406 3.61931 1.66406 5.19066 1.66406 8.33335" stroke="#1D1D1B" stroke-opacity="0.6" stroke-linecap="round"/>
<path d="M11.6641 1.66669C14.8068 1.66669 16.3781 1.66669 17.3544 2.643C18.3307 3.61931 18.3307 5.19066 18.3307 8.33335" stroke="#1D1D1B" stroke-opacity="0.6" stroke-linecap="round"/>
<path d="M15 5L15 10" stroke="#1D1D1B" stroke-opacity="0.6" stroke-linecap="round"/>
<path d="M15 11.6667L15 15" stroke="#1D1D1B" stroke-opacity="0.6" stroke-linecap="round"/>
<path d="M11.6641 5L11.6641 10" stroke="#1D1D1B" stroke-opacity="0.6" stroke-linecap="round"/>
<path d="M13.3359 5L13.3359 10" stroke="#1D1D1B" stroke-opacity="0.6" stroke-linecap="round"/>
<path d="M11.6641 11.6667L11.6641 15" stroke="#1D1D1B" stroke-opacity="0.6" stroke-linecap="round"/>
<path d="M13.3359 11.6667L13.3359 15" stroke="#1D1D1B" stroke-opacity="0.6" stroke-linecap="round"/>
<path d="M9.16406 5L9.16406 10" stroke="#1D1D1B" stroke-opacity="0.6" stroke-linecap="round"/>
<path d="M9.16406 11.6667L9.16406 15" stroke="#1D1D1B" stroke-opacity="0.6" stroke-linecap="round"/>
<path d="M6.66406 5L6.66406 10" stroke="#1D1D1B" stroke-opacity="0.6" stroke-linecap="round"/>
<path d="M6.66406 11.6667L6.66406 15" stroke="#1D1D1B" stroke-opacity="0.6" stroke-linecap="round"/>
<path d="M5 5L5 10" stroke="#1D1D1B" stroke-opacity="0.6" stroke-linecap="round"/>
<path d="M5 11.6667L5 15" stroke="#1D1D1B" stroke-opacity="0.6" stroke-linecap="round"/>
<path d="M16.6641 10L3.33073 10" stroke="#1D1D1B" stroke-opacity="0.6" stroke-linecap="round"/>
</svg>
