<svg width="24" height="24" viewBox="0 0 24 24" fill="none" xmlns="http://www.w3.org/2000/svg">
<path d="M20.9752 11.8148L20.4825 11.9L20.9752 11.8148ZM20.2696 7.73505L19.7769 7.82025L20.2696 7.73505ZM6.93777 3.52293L6.43963 3.47985L6.93777 3.52293ZM6.12561 12.9156L6.62375 12.9587L6.12561 12.9156ZM13.995 18.7786L14.4884 18.6977V18.6977L13.995 18.7786ZM13.3323 14.734L13.8257 14.6532L13.3323 14.734ZM6.69814 14.3225L6.37175 14.7013H6.37175L6.69814 14.3225ZM8.13688 15.5623L8.46327 15.1835L8.13688 15.5623ZM10.5181 19.2163L10.0341 19.3418L10.5181 19.2163ZM10.9938 21.0501L11.4777 20.9246V20.9246L10.9938 21.0501ZM12.6676 21.9356L12.5147 21.4596L12.5147 21.4596L12.6676 21.9356ZM12.8126 21.8891L12.9655 22.3651L12.9655 22.3651L12.8126 21.8891ZM9.86195 17.5374L10.303 17.3018L9.86195 17.5374ZM13.9047 20.7525L13.4207 20.6269V20.6269L13.9047 20.7525ZM11.6742 21.8676L11.4571 22.318V22.318L11.6742 21.8676ZM3.9716 2.52928L3.47346 2.48621L3.9716 2.52928ZM3 13.7658L3.49814 13.8089C3.47507 14.0756 3.24595 14.2769 2.97844 14.2653C2.71093 14.2538 2.5 14.0336 2.5 13.7658H3ZM20.4825 11.9L19.7769 7.82025L20.7623 7.64985L21.4678 11.7296L20.4825 11.9ZM13.245 2.5H8.59635V1.5H13.245V2.5ZM7.43591 3.566L6.62375 12.9587L5.62747 12.8725L6.43963 3.47985L7.43591 3.566ZM19.7769 7.82025C19.2483 4.76338 16.4963 2.5 13.245 2.5V1.5C16.9562 1.5 20.1463 4.08784 20.7623 7.64985L19.7769 7.82025ZM13.5015 18.8594L12.8389 14.8149L13.8257 14.6532L14.4884 18.6977L13.5015 18.8594ZM7.02453 13.9437L8.46327 15.1835L7.81048 15.9411L6.37175 14.7013L7.02453 13.9437ZM11.002 19.0907L11.4777 20.9246L10.5098 21.1757L10.0341 19.3418L11.002 19.0907ZM12.5147 21.4596L12.6596 21.413L12.9655 22.3651L12.8205 22.4117L12.5147 21.4596ZM10.303 17.3018C10.6057 17.8685 10.8407 18.4687 11.002 19.0907L10.0341 19.3418C9.89272 18.7969 9.68673 18.2706 9.42093 17.773L10.303 17.3018ZM12.6596 21.413C13.0445 21.2894 13.3268 20.9887 13.4207 20.6269L14.3887 20.878C14.2055 21.584 13.6641 22.1407 12.9655 22.3651L12.6596 21.413ZM11.4777 20.9246C11.5318 21.133 11.6797 21.3152 11.8913 21.4172L11.4571 22.318C10.9892 22.0926 10.64 21.6776 10.5098 21.1757L11.4777 20.9246ZM11.8913 21.4172C12.084 21.51 12.3088 21.5257 12.5147 21.4596L12.8205 22.4117C12.3716 22.5559 11.8818 22.5227 11.4571 22.318L11.8913 21.4172ZM14.1537 13.2658H19.3348V14.2658H14.1537V13.2658ZM4.46974 2.57235L3.49814 13.8089L2.50186 13.7227L3.47346 2.48621L4.46974 2.57235ZM3.5 2.48726V13.7658H2.5V2.48726H3.5ZM3.47346 2.48621C3.47346 2.48619 3.47344 2.48637 3.47345 2.48674C3.47346 2.48711 3.47349 2.48758 3.47356 2.48813C3.4737 2.48927 3.47398 2.49043 3.47436 2.49151C3.47508 2.49359 3.476 2.49487 3.47672 2.49566C3.47744 2.49645 3.47871 2.49754 3.48087 2.49852C3.48347 2.49969 3.48588 2.5 3.48671 2.5V1.5C4.06581 1.5 4.51955 1.99628 4.46974 2.57235L3.47346 2.48621ZM14.4884 18.6977C14.6073 19.4235 14.5733 20.1662 14.3887 20.878L13.4207 20.6269C13.5704 20.0498 13.5979 19.4478 13.5015 18.8594L14.4884 18.6977ZM8.59635 2.5C7.99248 2.5 7.4881 2.96248 7.43591 3.566L6.43963 3.47985C6.53644 2.3603 7.47265 1.5 8.59635 1.5V2.5ZM8.46327 15.1835C9.13902 15.7658 9.84164 16.4382 10.303 17.3018L9.42093 17.773C9.05156 17.0815 8.46981 16.5092 7.81048 15.9411L8.46327 15.1835ZM21.4678 11.7296C21.6968 13.0536 20.6786 14.2658 19.3348 14.2658V13.2658C20.0569 13.2658 20.6059 12.614 20.4825 11.9L21.4678 11.7296ZM3.48671 2.5C3.4877 2.5 3.4899 2.4997 3.49222 2.49871C3.49421 2.49787 3.49549 2.49688 3.49631 2.49607C3.49712 2.49525 3.49805 2.49403 3.49883 2.49218C3.49975 2.49001 3.5 2.48801 3.5 2.48726H2.5C2.5 1.94254 2.94123 1.5 3.48671 1.5V2.5ZM12.8389 14.8149C12.706 14.0039 13.3311 13.2658 14.1537 13.2658V14.2658C13.9493 14.2658 13.7923 14.4496 13.8257 14.6532L12.8389 14.8149ZM6.62375 12.9587C6.59142 13.3326 6.74066 13.6991 7.02454 13.9437L6.37175 14.7013C5.84431 14.2468 5.56748 13.5663 5.62747 12.8725L6.62375 12.9587Z" fill="#1D1D1B"/>
</svg>
