<svg width="40" height="40" viewBox="0 0 40 40" fill="none" xmlns="http://www.w3.org/2000/svg">
<path d="M10.8321 30L10.832 29.8508C10.8319 28.4081 10.8317 27.0853 10.9764 26.0093C11.1357 24.8244 11.5105 23.572 12.5406 22.5419C13.5707 21.5118 14.8231 21.137 16.008 20.9777C17.0841 20.833 18.4068 20.8332 19.8496 20.8333H20.1479C21.5906 20.8332 22.9134 20.833 23.9894 20.9777C25.1743 21.137 26.4268 21.5118 27.4568 22.5419C28.4869 23.572 28.8617 24.8244 29.0211 26.0093C29.1636 27.0695 29.1655 28.3691 29.1654 29.787C33.4531 28.8701 36.6654 25.0999 36.6654 20.5882C36.6654 16.4685 33.987 12.967 30.2572 11.6916C29.7272 6.98949 25.6918 3.33331 20.7923 3.33331C15.5325 3.33331 11.2685 7.5471 11.2685 12.7451C11.2685 13.8948 11.4771 14.9963 11.859 16.0148C11.4112 15.9279 10.9484 15.8823 10.4749 15.8823C6.53 15.8823 3.33203 19.0427 3.33203 22.9412C3.33203 26.8396 6.53 30 10.4749 30L10.8321 30Z" fill="#1D1D1B"/>
<path fill-rule="evenodd" clip-rule="evenodd" d="M19.9987 23.3333C16.856 23.3333 15.2847 23.3333 14.3083 24.3096C13.332 25.2859 13.332 26.8573 13.332 30C13.332 33.1427 13.332 34.714 14.3083 35.6903C15.2847 36.6666 16.856 36.6666 19.9987 36.6666C23.1414 36.6666 24.7127 36.6666 25.6891 35.6903C26.6654 34.714 26.6654 33.1427 26.6654 30C26.6654 26.8573 26.6654 25.2859 25.6891 24.3096C24.7127 23.3333 23.1414 23.3333 19.9987 23.3333ZM23.0066 28.4736L20.7844 26.2513C20.3505 25.8174 19.6469 25.8174 19.213 26.2513L16.9908 28.4736C16.5569 28.9075 16.5569 29.611 16.9908 30.0449C17.4247 30.4788 18.1282 30.4788 18.5622 30.0449L18.8876 29.7195V32.9629C18.8876 33.5766 19.385 34.0741 19.9987 34.0741C20.6123 34.0741 21.1098 33.5766 21.1098 32.9629V29.7195L21.4352 30.0449C21.8692 30.4788 22.5727 30.4788 23.0066 30.0449C23.4405 29.611 23.4405 28.9075 23.0066 28.4736Z" fill="#242933"/>
</svg>
