<svg width="16" height="16" viewBox="0 0 16 16" fill="none" xmlns="http://www.w3.org/2000/svg">
<path d="M13.332 4L1.9987 4" stroke="#1D1D1B" stroke-opacity="0.88" stroke-linecap="round"/>
<path d="M6.66797 10.6666H2.0013" stroke="#1D1D1B" stroke-opacity="0.88" stroke-linecap="round"/>
<path d="M6 7.33337L2 7.33337" stroke="#1D1D1B" stroke-opacity="0.88" stroke-linecap="round"/>
<path d="M10.9947 10.8722L11.2913 10.4697L11.2913 10.4697L10.9947 10.8722ZM11.668 6.73744L11.3107 7.08724C11.4048 7.1833 11.5335 7.23744 11.668 7.23744C11.8024 7.23744 11.9312 7.1833 12.0252 7.08724L11.668 6.73744ZM12.3413 10.8722L12.6379 11.2747L12.6379 11.2747L12.3413 10.8722ZM11.668 11.2069L11.668 10.7069L11.668 10.7069L11.668 11.2069ZM11.2913 10.4697C10.8623 10.1535 10.3129 9.70455 9.87581 9.20532C9.42316 8.68836 9.16797 8.20425 9.16797 7.80985H8.16797C8.16797 8.58384 8.63387 9.30494 9.12346 9.86408C9.62855 10.4409 10.2426 10.939 10.698 11.2747L11.2913 10.4697ZM9.16797 7.80985C9.16797 7.07135 9.49766 6.68249 9.83686 6.55566C10.1816 6.42673 10.7314 6.49554 11.3107 7.08724L12.0252 6.38763C11.2546 5.60061 10.3043 5.31323 9.48662 5.619C8.6633 5.92685 8.16797 6.76355 8.16797 7.80985H9.16797ZM12.6379 11.2747C13.0934 10.939 13.7074 10.4409 14.2125 9.86409C14.7021 9.30495 15.168 8.58384 15.168 7.80984H14.168C14.168 8.20425 13.9128 8.68838 13.4601 9.20533C13.023 9.70456 12.4737 10.1535 12.0446 10.4697L12.6379 11.2747ZM15.168 7.80984C15.168 6.76355 14.6726 5.92685 13.8493 5.61899C13.0316 5.31323 12.0813 5.60061 11.3107 6.38763L12.0252 7.08724C12.6046 6.49554 13.1543 6.42673 13.4991 6.55565C13.8383 6.68249 14.168 7.07135 14.168 7.80984H15.168ZM10.698 11.2747C10.9592 11.4671 11.2514 11.7069 11.668 11.7069L11.668 10.7069C11.6581 10.7069 11.6468 10.7084 11.6007 10.6835C11.5352 10.648 11.4533 10.589 11.2913 10.4697L10.698 11.2747ZM12.0446 10.4697C11.8827 10.589 11.8008 10.648 11.7353 10.6835C11.6892 10.7084 11.6779 10.7069 11.668 10.7069L11.668 11.7069C12.0845 11.7069 12.3768 11.4671 12.6379 11.2747L12.0446 10.4697Z" fill="#1D1D1B" fill-opacity="0.88"/>
</svg>
