<svg width="78" height="32" viewBox="0 0 78 32" fill="none" xmlns="http://www.w3.org/2000/svg">
<path d="M20.3326 10.1791C19.6232 9.04223 18.5937 8.16224 17.2442 7.53908C15.8947 6.91592 14.2926 6.60645 12.4421 6.60645H0V28.7264H6.1179V21.6886H12.4421C14.2947 21.6886 15.8947 21.377 17.2442 20.7559C18.5937 20.1328 19.6232 19.2528 20.3326 18.1159C21.0421 16.9791 21.3958 15.6612 21.3958 14.1622C21.3958 12.6633 21.04 11.318 20.3326 10.1812V10.1791ZM14.3621 16.1307C13.8105 16.6064 13.0421 16.8443 12.0568 16.8443H6.11579V11.4486H12.0568C13.0421 11.4486 13.8105 11.6864 14.3621 12.1622C14.9137 12.638 15.1895 13.3054 15.1895 14.1601C15.1895 15.0149 14.9137 15.6528 14.3621 16.1286V16.1307Z" fill="white"/>
<path d="M65.2933 21.1433H69.7985C69.4806 21.5412 69.0954 21.937 68.6259 22.3012C66.988 23.5707 65.2827 23.7243 64.7038 23.7685C64.4638 23.7875 62.7038 23.8654 60.847 23.0401C59.7543 22.5538 58.9101 21.8254 58.3206 20.8528C57.7291 19.8801 57.4343 18.6843 57.4343 17.2654C57.4343 15.8464 57.7101 14.6928 58.2617 13.7496C58.8133 12.8064 59.5922 12.097 60.5964 11.6212C61.6006 11.1454 62.7922 10.9075 64.1733 10.9075C65.3164 10.9075 66.3354 11.0485 67.2322 11.3306C67.9627 11.5601 68.5922 11.8759 69.127 12.2738H76.1733C75.8112 11.457 75.3417 10.6991 74.7543 10.0043C73.6701 8.72012 72.2427 7.7096 70.468 6.97065C68.6954 6.2317 66.5859 5.86328 64.1438 5.86328C62.3122 5.86328 60.6217 6.1117 59.0743 6.60644C57.527 7.10328 56.167 7.83591 54.9964 8.80854C53.8238 9.78118 52.9122 10.977 52.2638 12.3959C51.6133 13.8149 51.2891 15.4401 51.2891 17.2675C51.2891 19.0949 51.6091 20.7201 52.2491 22.1391C52.8891 23.558 53.7859 24.7559 54.9375 25.7264C56.0891 26.6991 57.4238 27.4338 58.9417 27.9285C60.4596 28.4254 62.0849 28.6717 63.8175 28.6717C65.5501 28.6717 67.2217 28.4085 68.5901 27.8843C69.9585 27.3601 71.1017 26.6296 72.0175 25.697C72.2701 25.4401 72.5038 25.1728 72.7227 24.8949L72.7122 28.2043H77.548V16.2928H65.2954V21.1454L65.2933 21.1433Z" fill="white"/>
<path d="M37.8646 7.15789C38.2077 7.15789 38.5383 7.17263 38.8625 7.19368L43.2372 0H36.1804L31.7656 7.15789H37.8625H37.8646Z" fill="#3497D5"/>
<path d="M32.8913 28.69V21.6943H39.2155C41.0682 21.6943 42.6682 21.3827 44.0177 20.7616C45.3671 20.1385 46.3966 19.2585 47.1061 18.1216C47.8155 16.9848 48.1692 15.6669 48.1692 14.1679C48.1692 12.669 47.8155 11.3237 47.1061 10.1869C46.3966 9.05005 45.3671 8.17005 44.0177 7.54689C42.6682 6.92373 41.0661 6.61426 39.2155 6.61426H26.7734V16.81L30.0513 11.3974L37.4134 11.41L37.4198 11.4143L38.7924 11.4353C39.7776 11.4353 40.5861 11.6964 41.1376 12.1722C41.6892 12.6479 41.965 13.3153 41.965 14.17C41.965 15.0248 41.6892 15.6627 41.1376 16.1385C40.5861 16.6143 39.8176 16.8522 38.8324 16.8522H34.0176L26.8155 28.669" fill="white"/>
<path d="M26.7934 16.7891L17.6797 31.768L24.905 31.8164L26.7976 28.7133" fill="#3497D5"/>
</svg>
