<svg width="40" height="40" viewBox="0 0 40 40" fill="none" xmlns="http://www.w3.org/2000/svg">
<g clip-path="url(#clip0_2426_30408)">
<path d="M26.1519 8.94316C26.5841 8.94316 27.0035 8.96 27.4145 8.98737L32.9438 0H24.027L18.4487 8.94316H26.154H26.1519Z" fill="#3497D5"/>
<path d="M19.2811 35.9031V27.1621H27.2717C29.6116 27.1621 31.6343 26.7747 33.3397 25.9958C35.0451 25.2189 36.346 24.1179 37.2424 22.6968C38.1388 21.2758 38.5859 19.6294 38.5859 17.7579C38.5859 15.8863 38.1388 14.2042 37.2424 12.7831C36.346 11.3621 35.0451 10.2631 33.3397 9.48419C31.6343 8.70734 29.6116 8.31787 27.2717 8.31787H11.5503V21.0568L15.6914 14.2926L24.9936 14.3073L25.0021 14.3137L26.7373 14.3389C27.9828 14.3389 29.0027 14.6652 29.6989 15.261C30.3951 15.8568 30.7443 16.6884 30.7443 17.7579C30.7443 18.8273 30.3951 19.6231 29.6989 20.2189C29.0027 20.8147 28.0297 21.1116 26.7863 21.1116H20.7013L11.5993 35.8758" fill="white"/>
<path d="M11.576 21.0337L0.0595703 39.7495L9.19137 39.8084L11.5824 35.9326" fill="#3497D5"/>
</g>
<defs>
<clipPath id="clip0_2426_30408">
<rect width="38.75" height="40" fill="white"/>
</clipPath>
</defs>
</svg>
