<svg width="98" height="40" viewBox="0 0 98 40" fill="none" xmlns="http://www.w3.org/2000/svg">
<g clip-path="url(#clip0_30_85)">
<path d="M25.8632 12.7237C24.9763 11.3026 23.6895 10.2026 22.0027 9.42369C20.3158 8.64475 18.3132 8.2579 16 8.2579H0.447388V35.9079H8.09476V27.1105H16C18.3158 27.1105 20.3158 26.7211 22.0027 25.9447C23.6895 25.1658 24.9763 24.0658 25.8632 22.6447C26.75 21.2237 27.1921 19.5763 27.1921 17.7026C27.1921 15.829 26.7474 14.1474 25.8632 12.7263V12.7237ZM18.4 20.1632C17.7105 20.7579 16.75 21.0553 15.5184 21.0553H8.09212V14.3105H15.5184C16.75 14.3105 17.7105 14.6079 18.4 15.2026C19.0895 15.7974 19.4342 16.6316 19.4342 17.7C19.4342 18.7684 19.0895 19.5658 18.4 20.1605V20.1632Z" fill="#1D1D1B"/>
<path d="M82.0632 26.4289H87.6948C87.2974 26.9263 86.8158 27.4211 86.229 27.8763C84.1816 29.4632 82.05 29.6553 81.3263 29.7105C81.0263 29.7342 78.8263 29.8316 76.5053 28.8C75.1395 28.1921 74.0842 27.2816 73.3474 26.0658C72.6079 24.85 72.2395 23.3553 72.2395 21.5816C72.2395 19.8079 72.5842 18.3658 73.2737 17.1868C73.9632 16.0079 74.9369 15.1211 76.1921 14.5263C77.4474 13.9316 78.9369 13.6342 80.6632 13.6342C82.0921 13.6342 83.3658 13.8105 84.4869 14.1632C85.4 14.45 86.1869 14.8447 86.8553 15.3421H95.6632C95.2106 14.3211 94.6237 13.3737 93.8895 12.5053C92.5342 10.9 90.75 9.63684 88.5316 8.71316C86.3158 7.78948 83.679 7.32895 80.6263 7.32895C78.3369 7.32895 76.2237 7.63947 74.2895 8.2579C72.3553 8.87895 70.6553 9.79474 69.1921 11.0105C67.7263 12.2263 66.5869 13.7211 65.7763 15.4947C64.9632 17.2684 64.5579 19.3 64.5579 21.5842C64.5579 23.8684 64.9579 25.9 65.7579 27.6737C66.5579 29.4474 67.679 30.9447 69.1185 32.1579C70.5579 33.3737 72.2263 34.2921 74.1237 34.9105C76.0211 35.5316 78.0527 35.8395 80.2184 35.8395C82.3842 35.8395 84.4737 35.5105 86.1842 34.8553C87.8948 34.2 89.3237 33.2868 90.4684 32.1211C90.7842 31.8 91.0763 31.4658 91.35 31.1184L91.3369 35.2553H97.3816V20.3658H82.0658V26.4316L82.0632 26.4289Z" fill="#1D1D1B"/>
<path d="M47.7685 8.94737C48.1974 8.94737 48.6106 8.96579 49.0158 8.9921L54.4842 0H45.6632L40.1448 8.94737H47.7658H47.7685Z" fill="#57ADE3"/>
<path d="M41.5579 35.8632V27.1184H49.4632C51.7789 27.1184 53.7789 26.729 55.4658 25.9526C57.1526 25.1737 58.4395 24.0737 59.3263 22.6526C60.2132 21.2316 60.6553 19.5842 60.6553 17.7105C60.6553 15.8369 60.2132 14.1553 59.3263 12.7342C58.4395 11.3132 57.1526 10.2132 55.4658 9.43422C53.7789 8.65527 51.7763 8.26843 49.4632 8.26843H33.9105V21.0132L38.0079 14.2474L47.2105 14.2632L47.2184 14.2684L48.9342 14.2947C50.1658 14.2947 51.1763 14.6211 51.8658 15.2158C52.5553 15.8105 52.9 16.6447 52.9 17.7132C52.9 18.7816 52.5553 19.579 51.8658 20.1737C51.1763 20.7684 50.2158 21.0658 48.9842 21.0658H42.9658L33.9632 35.8369" fill="#1D1D1B"/>
<path d="M33.9342 20.9868L22.5421 39.7105L31.5737 39.7711L33.9395 35.8921" fill="#57ADE3"/>
</g>
<defs>
<clipPath id="clip0_30_85">
<rect width="97.1053" height="40" fill="white" transform="translate(0.447388)"/>
</clipPath>
</defs>
</svg>
