<svg width="40" height="40" viewBox="0 0 40 40" fill="none" xmlns="http://www.w3.org/2000/svg">
<g clip-path="url(#clip0_4016_10680)">
<path d="M26.152 8.94316C26.5842 8.94316 27.0036 8.96 27.4146 8.98737L32.9439 0H24.0271L18.4488 8.94316H26.1541H26.152Z" fill="#57ADE3"/>
<path d="M19.2813 35.9031V27.1621H27.2719C29.6118 27.1621 31.6345 26.7747 33.3399 25.9958C35.0453 25.2189 36.3462 24.1179 37.2426 22.6968C38.1389 21.2758 38.5861 19.6295 38.5861 17.7579C38.5861 15.8863 38.1389 14.2042 37.2426 12.7831C36.3462 11.3621 35.0453 10.2631 33.3399 9.48419C31.6345 8.70734 29.6118 8.31787 27.2719 8.31787H11.5505V21.0568L15.6916 14.2926L24.9937 14.3073L25.0023 14.3137L26.7375 14.3389C27.983 14.3389 29.0029 14.6652 29.6991 15.261C30.3953 15.8568 30.7445 16.6884 30.7445 17.7579C30.7445 18.8273 30.3953 19.6231 29.6991 20.2189C29.0029 20.8147 28.0299 21.1116 26.7865 21.1116H20.7014L11.5994 35.8758" fill="#242933"/>
<path d="M11.576 21.0337L0.0596151 39.7495L9.19141 39.8084L11.5824 35.9326" fill="#57ADE3"/>
</g>
<defs>
<clipPath id="clip0_4016_10680">
<rect width="38.75" height="40" fill="white"/>
</clipPath>
</defs>
</svg>
