<svg width="134" height="40" viewBox="0 0 134 40" fill="none" xmlns="http://www.w3.org/2000/svg">
<path d="M35.0378 7.80535C33.8162 5.84499 32.0396 4.32787 29.7153 3.2576C27.391 2.18733 24.6306 1.65039 21.4414 1.65039H0V39.7657H10.5405V27.6396H21.4378C24.627 27.6396 27.3874 27.1026 29.7117 26.0324C32.036 24.9621 33.8126 23.445 35.0342 21.4846C36.2559 19.5243 36.8685 17.254 36.8685 14.6738C36.8685 12.0936 36.2559 9.77291 35.0342 7.81255L35.0378 7.80535ZM24.7496 18.0612C23.7982 18.8828 22.4757 19.2936 20.7784 19.2936H10.5405V9.99273H20.7784C22.4757 9.99273 23.7982 10.4035 24.7496 11.2252C25.7009 12.0468 26.1766 13.1927 26.1766 14.6666C26.1766 16.1405 25.7009 17.2396 24.7496 18.0612Z" fill="white"/>
<path d="M112.512 26.699H120.274C119.726 27.3837 119.063 28.0648 118.252 28.6918C115.427 30.8792 112.49 31.1459 111.492 31.2216C111.078 31.254 108.047 31.3873 104.847 29.9639C102.962 29.1279 101.51 27.8702 100.494 26.1945C99.4741 24.5189 98.966 22.4576 98.966 20.0107C98.966 17.5639 99.4417 15.5783 100.393 13.9531C101.344 12.3279 102.685 11.1062 104.415 10.2846C106.144 9.463 108.198 9.05219 110.577 9.05219C112.544 9.05219 114.303 9.29723 115.849 9.78011C117.107 10.1765 118.195 10.7207 119.114 11.4053H131.254C130.631 9.99993 129.82 8.69182 128.807 7.49543C126.941 5.28282 124.48 3.54228 121.424 2.2666C118.368 0.994527 114.735 0.356689 110.526 0.356689C107.37 0.356689 104.458 0.785518 101.791 1.63957C99.1245 2.49363 96.7822 3.75849 94.7642 5.43417C92.7426 7.10984 91.175 9.1711 90.0543 11.618C88.9336 14.0648 88.375 16.8612 88.375 20.0107C88.375 23.1603 88.9264 25.9603 90.0291 28.4035C91.1318 30.8504 92.6777 32.9116 94.6633 34.5873C96.6489 36.263 98.948 37.5279 101.564 38.3819C104.177 39.236 106.98 39.6648 109.968 39.6648C112.955 39.6648 115.831 39.2107 118.191 38.3062C120.552 37.4017 122.519 36.1441 124.098 34.5369C124.534 34.0936 124.937 33.6324 125.312 33.1567L125.294 38.8612H133.625V18.3351H112.512V26.6954V26.699Z" fill="white"/>
<path d="M56.6734 39.7081V27.6504H67.5707C70.7598 27.6504 73.5202 27.1135 75.8445 26.0432C78.1689 24.973 79.9454 23.4558 81.167 21.4955C82.3887 19.5351 83.0013 17.2649 83.0013 14.6847C83.0013 12.1045 82.3887 9.78377 81.167 7.82341C79.9454 5.86305 78.1689 4.34593 75.8445 3.27566C73.5202 2.20539 70.7598 1.66846 67.5707 1.66846H46.1328V19.2396L51.7797 9.9135L64.4643 9.93512L64.4752 9.94233L66.8427 9.97837C68.54 9.97837 69.931 10.4288 70.8824 11.2504C71.8337 12.0721 72.3094 13.218 72.3094 14.6919C72.3094 16.1658 71.8337 17.2649 70.8824 18.0865C69.931 18.9081 68.6085 19.3189 66.9112 19.3189H58.6121L46.2013 39.6793" fill="white"/>
</svg>
