<svg width="20" height="20" viewBox="0 0 20 20" fill="none" xmlns="http://www.w3.org/2000/svg">
<path d="M17.5534 9.88103L17.1255 9.62244L17.5534 9.88103ZM10.1167 2.44429L9.85811 2.01635L9.85811 2.01635L10.1167 2.44429ZM18.3307 10.0003H17.8307C17.8307 14.3266 14.3236 17.8337 9.9974 17.8337V18.3337V18.8337C14.8759 18.8337 18.8307 14.8788 18.8307 10.0003H18.3307ZM9.9974 18.3337V17.8337C5.67117 17.8337 2.16406 14.3266 2.16406 10.0003H1.66406H1.16406C1.16406 14.8788 5.11888 18.8337 9.9974 18.8337V18.3337ZM1.66406 10.0003H2.16406C2.16406 5.6741 5.67117 2.16699 9.9974 2.16699V1.66699V1.16699C5.11888 1.16699 1.16406 5.12181 1.16406 10.0003H1.66406ZM12.9141 12.5003V12.0003C10.1987 12.0003 7.9974 9.79906 7.9974 7.08366H7.4974H6.9974C6.9974 10.3513 9.64638 13.0003 12.9141 13.0003V12.5003ZM17.5534 9.88103L17.1255 9.62244C16.2637 11.0487 14.6998 12.0003 12.9141 12.0003V12.5003V13.0003C15.0643 13.0003 16.946 11.853 17.9814 10.1396L17.5534 9.88103ZM7.4974 7.08366H7.9974C7.9974 5.29795 8.94906 3.73404 10.3753 2.87223L10.1167 2.44429L9.85811 2.01635C8.14469 3.0517 6.9974 4.93346 6.9974 7.08366H7.4974ZM9.9974 1.66699V2.16699C9.98198 2.16699 9.95809 2.16384 9.93076 2.1522C9.90363 2.14063 9.8812 2.12415 9.86454 2.1068C9.83301 2.07398 9.82989 2.04779 9.82989 2.04778C9.82972 2.04658 9.82946 2.04759 9.83026 2.04569C9.83212 2.04124 9.84004 2.02727 9.85811 2.01635L10.1167 2.44429L10.3753 2.87223C10.7437 2.64961 10.8649 2.23963 10.8209 1.91394C10.7753 1.57673 10.5137 1.16699 9.9974 1.16699V1.66699ZM17.5534 9.88103L17.9814 10.1396C17.9705 10.1577 17.9565 10.1656 17.952 10.1675C17.9501 10.1683 17.9511 10.168 17.9499 10.1678C17.9499 10.1678 17.9237 10.1647 17.8909 10.1332C17.8736 10.1165 17.8571 10.0941 17.8455 10.067C17.8339 10.0396 17.8307 10.0157 17.8307 10.0003H18.3307H18.8307C18.8307 9.48401 18.421 9.22237 18.0838 9.17683C17.7581 9.13285 17.3481 9.25403 17.1255 9.62244L17.5534 9.88103Z" fill="#242933"/>
</svg>
