<svg width="16" height="16" viewBox="0 0 16 16" fill="none" xmlns="http://www.w3.org/2000/svg">
<g clip-path="url(#clip0_2198_6459)">
<path d="M14.6663 8.00004C14.6663 11.1427 14.6663 12.7141 13.69 13.6904C12.7137 14.6667 11.1424 14.6667 7.99967 14.6667C4.85698 14.6667 3.28563 14.6667 2.30932 13.6904C1.33301 12.7141 1.33301 11.1427 1.33301 8.00004C1.33301 4.85734 1.33301 3.286 2.30932 2.30968C3.28563 1.33337 4.85698 1.33337 7.99967 1.33337" stroke="#1D1D1B" stroke-opacity="0.88" stroke-linecap="round"/>
<path d="M1.33301 8.33326L2.50073 7.31151C3.10825 6.77994 4.02386 6.81043 4.59466 7.38124L7.45448 10.2411C7.91264 10.6992 8.63384 10.7617 9.16394 10.3891L9.36274 10.2494C10.1256 9.71331 11.1576 9.77542 11.8507 10.3991L13.9997 12.3333" stroke="#1D1D1B" stroke-opacity="0.88" stroke-linecap="round"/>
<path d="M10 3.66671H12.3333M12.3333 3.66671H14.6667M12.3333 3.66671V6.00004M12.3333 3.66671V1.33337" stroke="#1D1D1B" stroke-opacity="0.88" stroke-linecap="round"/>
</g>
<defs>
<clipPath id="clip0_2198_6459">
<rect width="16" height="16" fill="white"/>
</clipPath>
</defs>
</svg>
