<svg width="20" height="20" viewBox="0 0 20 20" fill="none" xmlns="http://www.w3.org/2000/svg">
<path d="M7.49967 10.0003C7.49967 11.1509 6.56693 12.0837 5.41634 12.0837C4.26575 12.0837 3.33301 11.1509 3.33301 10.0003C3.33301 8.84973 4.26575 7.91699 5.41634 7.91699C6.56693 7.91699 7.49967 8.84973 7.49967 10.0003Z" stroke="white"/>
<path d="M11.6667 5.41699L7.5 8.33366" stroke="white" stroke-linecap="round"/>
<path d="M11.6667 14.583L7.5 11.6663" stroke="white" stroke-linecap="round"/>
<path d="M15.8337 15.4163C15.8337 16.5669 14.9009 17.4997 13.7503 17.4997C12.5997 17.4997 11.667 16.5669 11.667 15.4163C11.667 14.2657 12.5997 13.333 13.7503 13.333C14.9009 13.333 15.8337 14.2657 15.8337 15.4163Z" stroke="white"/>
<path d="M15.8337 4.58333C15.8337 5.73393 14.9009 6.66667 13.7503 6.66667C12.5997 6.66667 11.667 5.73393 11.667 4.58333C11.667 3.43274 12.5997 2.5 13.7503 2.5C14.9009 2.5 15.8337 3.43274 15.8337 4.58333Z" stroke="white"/>
</svg>
