<svg width="40" height="40" viewBox="0 0 40 40" fill="none" xmlns="http://www.w3.org/2000/svg">
<path d="M0 8C0 3.58172 3.58172 0 8 0H32C36.4183 0 40 3.58172 40 8V32C40 36.4183 36.4183 40 32 40H8C3.58172 40 0 36.4183 0 32V8Z" fill="white"/>
<path d="M17.4997 20C17.4997 21.1506 16.5669 22.0834 15.4163 22.0834C14.2657 22.0834 13.333 21.1506 13.333 20C13.333 18.8494 14.2657 17.9167 15.4163 17.9167C16.5669 17.9167 17.4997 18.8494 17.4997 20Z" stroke="#1D1D1B"/>
<path d="M21.6667 15.4167L17.5 18.3334" stroke="#1D1D1B" stroke-linecap="round"/>
<path d="M21.6667 24.5833L17.5 21.6666" stroke="#1D1D1B" stroke-linecap="round"/>
<path d="M25.8337 25.4166C25.8337 26.5672 24.9009 27.5 23.7503 27.5C22.5997 27.5 21.667 26.5672 21.667 25.4166C21.667 24.2661 22.5997 23.3333 23.7503 23.3333C24.9009 23.3333 25.8337 24.2661 25.8337 25.4166Z" stroke="#1D1D1B"/>
<path d="M25.8337 14.5833C25.8337 15.7339 24.9009 16.6667 23.7503 16.6667C22.5997 16.6667 21.667 15.7339 21.667 14.5833C21.667 13.4327 22.5997 12.5 23.7503 12.5C24.9009 12.5 25.8337 13.4327 25.8337 14.5833Z" stroke="#1D1D1B"/>
</svg>
