<svg display="none" xmlns="http://www.w3.org/2000/svg">

  <symbol id="mail" viewBox="0 0 20 20">
    <path
      d="M1.66669 9.99998C1.66669 6.85728 1.66669 5.28593 2.643 4.30962C3.61931 3.33331 5.19066 3.33331 8.33335 3.33331H11.6667C14.8094 3.33331 16.3807 3.33331 17.357 4.30962C18.3334 5.28593 18.3334 6.85728 18.3334 9.99998C18.3334 13.1427 18.3334 14.714 17.357 15.6903C16.3807 16.6666 14.8094 16.6666 11.6667 16.6666H8.33335C5.19066 16.6666 3.61931 16.6666 2.643 15.6903C1.66669 14.714 1.66669 13.1427 1.66669 9.99998Z"
      stroke-opacity="0.6" />
    <path
      d="M5 6.66669L6.79908 8.16592C8.32961 9.44136 9.09488 10.0791 10 10.0791C10.9051 10.0791 11.6704 9.44136 13.2009 8.16592L15 6.66669"
      stroke-opacity="0.6" stroke-linecap="round" />
  </symbol>

  <symbol id="key" viewBox="0 0 20 20">
    <path
      d="M13.0673 12.1557C15.9757 12.1557 18.3334 9.80769 18.3334 6.91122C18.3334 4.01474 15.9757 1.66669 13.0673 1.66669C10.159 1.66669 7.80127 4.01474 7.80127 6.91122C7.80127 8.25284 8.4136 9.22857 8.4136 9.22857L2.04536 15.5708C1.7596 15.8554 1.35955 16.5953 2.04536 17.2783L2.78016 18.0101C3.0659 18.254 3.78435 18.5955 4.37218 18.0101L5.22945 17.1563C6.08671 18.0101 7.06644 17.5222 7.43384 17.0344C8.04617 16.1806 7.31137 15.3269 7.31137 15.3269L7.5563 15.0829C8.73198 16.2538 9.76069 15.5708 10.1281 15.0829C10.7404 14.2292 10.1281 13.3754 10.1281 13.3754C9.88316 12.8875 9.39333 12.8875 10.0056 12.2777L10.7405 11.5459C11.3283 12.0338 12.5366 12.1557 13.0673 12.1557Z"
      stroke-opacity="0.6" stroke-linejoin="round" />
    <path
      d="M14.9043 6.91127C14.9043 7.92167 14.0818 8.74076 13.0673 8.74076C12.0527 8.74076 11.2303 7.92167 11.2303 6.91127C11.2303 5.90088 12.0527 5.08179 13.0673 5.08179C14.0818 5.08179 14.9043 5.90088 14.9043 6.91127Z"
      stroke-opacity="0.6" />
  </symbol>

  <symbol id="catalog-icon" viewBox="0 0 21 20">
    <path
      d="M17.4252 12.6101L19.0208 14.1667M18.6042 9.79168C18.6042 11.9778 16.832 13.75 14.6458 13.75C12.4597 13.75 10.6875 11.9778 10.6875 9.79168C10.6875 7.60555 12.4597 5.83334 14.6458 5.83334C16.832 5.83334 18.6042 7.60555 18.6042 9.79168Z"
      stroke-linecap="round" />
    <path d="M9.02344 5.83334L2.35677 5.83334" stroke-linecap="round" />
    <path d="M7.35156 10H2.35156" stroke-linecap="round" />
    <path d="M9.02344 14.1667L2.35677 14.1667" stroke-linecap="round" />
  </symbol>

  <symbol id="collection-icon" viewBox="0 0 21 20">
    <path d="M4.02344 15V5" stroke-linecap="round" />
    <path d="M17.3516 5V15" stroke-linecap="round" />
    <path
      d="M10.6901 8.33332C14.372 8.33332 17.3568 6.84094 17.3568 4.99999C17.3568 3.15904 14.372 1.66666 10.6901 1.66666C7.00821 1.66666 4.02344 3.15904 4.02344 4.99999C4.02344 6.84094 7.00821 8.33332 10.6901 8.33332Z" />
    <path d="M17.3568 10C17.3568 11.8409 14.372 13.3333 10.6901 13.3333C7.00821 13.3333 4.02344 11.8409 4.02344 10" />
    <path d="M17.3568 15C17.3568 16.8409 14.372 18.3333 10.6901 18.3333C7.00821 18.3333 4.02344 16.8409 4.02344 15" />
  </symbol>

  <symbol id="blog-icon" viewBox="0 0 21 20">
    <path
      d="M3.1875 8.33332C3.1875 5.19063 3.1875 3.61928 4.16381 2.64297C5.14012 1.66666 6.71147 1.66666 9.85417 1.66666H11.5208C14.6635 1.66666 16.2349 1.66666 17.2112 2.64297C18.1875 3.61928 18.1875 5.19063 18.1875 8.33332V11.6667C18.1875 14.8094 18.1875 16.3807 17.2112 17.357C16.2349 18.3333 14.6635 18.3333 11.5208 18.3333H9.85417C6.71147 18.3333 5.14012 18.3333 4.16381 17.357C3.1875 16.3807 3.1875 14.8094 3.1875 11.6667V8.33332Z"
      stroke-linecap="round" />
    <path d="M7.35156 8.33334H14.0182" stroke-linecap="round" />
    <path d="M7.35156 11.6667H11.5182" stroke-linecap="round" />
  </symbol>

  <symbol id="help-icon" viewBox="0 0 21 20">
    <circle cx="10.6849" cy="9.99999" r="8.33333" stroke-linecap="round" />
    <circle cx="10.6849" cy="9.99999" r="3.33333" />
    <path d="M13.1875 7.49999L16.5208 4.16666" />
    <path d="M4.85156 15.8333L8.1849 12.5" />
    <path d="M8.1875 7.49999L4.85417 4.16666" />
    <path d="M16.5234 15.8333L13.1901 12.5" />
  </symbol>


  <symbol id="search-icon" viewBox="0 0 20 20">
    <path
      d="M15.1394 15.2202L18.3307 18.3333M17.4974 9.58332C17.4974 13.9556 13.953 17.5 9.58073 17.5C5.20848 17.5 1.66406 13.9556 1.66406 9.58332C1.66406 5.21107 5.20848 1.66666 9.58073 1.66666C13.953 1.66666 17.4974 5.21107 17.4974 9.58332Z"
      stroke-opacity="0.6" stroke-linecap="round" />
  </symbol>


  <symbol id="heart" viewBox="0 0 20 20">
    <path
      d="M7.46941 15.7591L7.77895 15.3664L7.46941 15.7591ZM10.0013 4.58386L9.64106 4.93059C9.73532 5.02852 9.86538 5.08386 10.0013 5.08386C10.1372 5.08386 10.2673 5.02852 10.3615 4.93059L10.0013 4.58386ZM12.5332 15.7591L12.8427 16.1517L12.5332 15.7591ZM7.77895 15.3664C6.52333 14.3766 5.12837 13.3941 4.02308 12.1495C2.93492 10.9242 2.16797 9.48443 2.16797 7.61425H1.16797C1.16797 9.79651 2.07578 11.4627 3.27536 12.8135C4.45781 14.145 5.96358 15.2087 7.15987 16.1517L7.77895 15.3664ZM2.16797 7.61425C2.16797 5.77509 3.20739 4.2263 4.6363 3.57314C6.03369 2.93439 7.89409 3.11556 9.64106 4.93059L10.3615 4.23713C8.35865 2.15619 6.05238 1.82633 4.22057 2.66365C2.42028 3.48657 1.16797 5.40096 1.16797 7.61425H2.16797ZM7.15987 16.1517C7.58788 16.4891 8.0394 16.8424 8.49505 17.1087C8.95054 17.3748 9.4577 17.5833 10.0013 17.5833V16.5833C9.71157 16.5833 9.3854 16.4707 8.99958 16.2453C8.61392 16.0199 8.21617 15.7111 7.77895 15.3664L7.15987 16.1517ZM12.8427 16.1517C14.039 15.2087 15.5448 14.145 16.7272 12.8135C17.9268 11.4627 18.8346 9.79651 18.8346 7.61425H17.8346C17.8346 9.48443 17.0677 10.9242 15.9795 12.1495C14.8742 13.3941 13.4793 14.3766 12.2236 15.3664L12.8427 16.1517ZM18.8346 7.61425C18.8346 5.40096 17.5823 3.48657 15.782 2.66365C13.9502 1.82633 11.644 2.15619 9.64106 4.23713L10.3615 4.93059C12.1085 3.11556 13.9689 2.93439 15.3663 3.57314C16.7952 4.2263 17.8346 5.77509 17.8346 7.61425H18.8346ZM12.2236 15.3664C11.7864 15.7111 11.3887 16.0199 11.003 16.2453C10.6172 16.4707 10.291 16.5833 10.0013 16.5833V17.5833C10.5449 17.5833 11.0521 17.3748 11.5076 17.1087C11.9632 16.8424 12.4147 16.4891 12.8427 16.1517L12.2236 15.3664Z" />
  </symbol>

  <symbol id="notification" viewBox="0 0 20 20">
    <path
      d="M15.6243 8.0913V7.50413C15.6243 4.28018 13.1062 1.66666 10 1.66666C6.8938 1.66666 4.37573 4.28018 4.37573 7.50413V8.0913C4.37573 8.79595 4.17476 9.48484 3.79817 10.0712L2.8753 11.5079C2.03235 12.8203 2.67587 14.6041 4.14197 15.0191C7.97728 16.1047 12.0227 16.1047 15.858 15.0191C17.3241 14.6041 17.9676 12.8203 17.1247 11.5079L16.2018 10.0712C15.8252 9.48485 15.6243 8.79595 15.6243 8.0913Z" />
    <path d="M6.25 15.8333C6.79586 17.2898 8.26871 18.3333 10 18.3333C11.7313 18.3333 13.2041 17.2898 13.75 15.8333"
      stroke-linecap="round" />
  </symbol>

  <symbol id="arrow-left" viewBox="0 0 16 16">
    <path d="M10 3.33337L6 8.00004L10 12.6667" stroke-linecap="round" stroke-linejoin="round" />
  </symbol>
  <symbol id="arrow-right" viewBox="0 0 16 16">
    <path d="M6 3.33337L10 8.00004L6 12.6667" stroke-linecap="round" stroke-linejoin="round" />
  </symbol>
  <symbol id="arrow-bottom" viewBox="0 0 20 20">
    <path d="M15.8337 7.5L10.0003 12.5L4.16699 7.5" stroke-opacity="0.88" stroke-linecap="round"
      stroke-linejoin="round" />
  </symbol>

  <symbol id="icon-arrow-right" viewBox="0 0 20 20">
    <path d="M3.33594 10H16.6693M16.6693 10L11.6693 5M16.6693 10L11.6693 15" stroke-linecap="round"
      stroke-linejoin="round" />
  </symbol>



  <symbol id="cloud-icon" viewBox="0 0 20 20">
    <path
      d="M5.2394 15.8333C3.26695 15.8333 1.66797 14.2532 1.66797 12.3039C1.66797 10.3547 3.26695 8.77451 5.2394 8.77451C5.47616 8.77451 5.70755 8.79728 5.93144 8.84072M11.9854 6.68934C12.4819 6.51593 13.0162 6.42157 13.5727 6.42157C14.1183 6.42157 14.6424 6.51223 15.1305 6.67915M5.93144 8.84072C5.74052 8.3315 5.63622 7.78073 5.63622 7.20588C5.63622 4.6069 7.7682 2.5 10.3981 2.5C12.8479 2.5 14.8656 4.32809 15.1305 6.67915M5.93144 8.84072C6.40179 8.93199 6.83904 9.1145 7.22352 9.36884M15.1305 6.67915C16.9954 7.31686 18.3346 9.0676 18.3346 11.1275C18.3346 13.3833 16.7285 15.2684 14.5846 15.7269"
      stroke-linecap="round" />
    <path d="M9.9987 13.3333V18.3333M9.9987 13.3333L11.6654 15M9.9987 13.3333L8.33203 15" stroke-linecap="round"
      stroke-linejoin="round" />
  </symbol>

  <symbol id="download-icon" viewBox="0 0 16 16">
    <path
      d="M2 10C2 11.8856 2 12.8284 2.58579 13.4142C3.17157 14 4.11438 14 6 14H10C11.8856 14 12.8284 14 13.4142 13.4142C14 12.8284 14 11.8856 14 10"
      stroke-linecap="round" stroke-linejoin="round" />
    <path d="M7.9987 2.00002V10.6667M7.9987 10.6667L10.6654 7.75002M7.9987 10.6667L5.33203 7.75002"
      stroke-linecap="round" stroke-linejoin="round" />
  </symbol>
  <symbol id="filter-icon" viewBox="0 0 16 16">
    <path
      d="M10.0002 11.3055L14.6668 11.3055M6.00016 4.63885L1.3335 4.63885M1.3335 11.3055H2.66683M14.6668 4.63885L13.3335 4.63885M6.3335 9.33317C7.43807 9.33317 8.3335 10.2286 8.3335 11.3332C8.3335 12.4377 7.43807 13.3332 6.3335 13.3332C5.22893 13.3332 4.3335 12.4377 4.3335 11.3332C4.3335 10.2286 5.22893 9.33317 6.3335 9.33317ZM9.66683 2.6665C8.56226 2.6665 7.66683 3.56193 7.66683 4.6665C7.66683 5.77107 8.56226 6.6665 9.66683 6.6665C10.7714 6.6665 11.6668 5.77107 11.6668 4.6665C11.6668 3.56193 10.7714 2.6665 9.66683 2.6665Z"
      stroke-linecap="round" />
  </symbol>

  <symbol id="pencil-icon" viewBox="0 0 16 16">
    <path d="M2.66797 14.6666H13.3346" stroke-opacity="0.88" stroke-linecap="round" />
    <path
      d="M9.26 2.44199L9.75434 1.94766C10.5734 1.12861 11.9013 1.12861 12.7204 1.94766C13.5394 2.7667 13.5394 4.09463 12.7204 4.91367L12.226 5.40801M9.26 2.44199C9.26 2.44199 9.3218 3.49245 10.2487 4.41933C11.1756 5.34621 12.226 5.40801 12.226 5.40801M9.26 2.44199L4.71534 6.98665C4.40752 7.29447 4.25361 7.44838 4.12125 7.61809C3.96511 7.81827 3.83124 8.03487 3.72202 8.26405C3.62943 8.45834 3.5606 8.66483 3.42293 9.07781L2.8396 10.8278M12.226 5.40801L7.68136 9.95267C7.37354 10.2605 7.21963 10.4144 7.04992 10.5468C6.84974 10.7029 6.63314 10.8368 6.40396 10.946C6.20967 11.0386 6.00318 11.1074 5.5902 11.2451L3.84019 11.8284M3.84019 11.8284L3.41242 11.971C3.20918 12.0387 2.98512 11.9859 2.83364 11.8344C2.68216 11.6829 2.62926 11.4588 2.69701 11.2556L2.8396 10.8278M3.84019 11.8284L2.8396 10.8278"
      stroke-opacity="0.88" />
  </symbol>

  <symbol id="list-icon" viewBox="0 0 16 16">
    <path d="M13.332 4L1.9987 4" stroke-opacity="0.88" stroke-linecap="round" />
    <path d="M6.66797 10.6666H2.0013" stroke-opacity="0.88" stroke-linecap="round" />
    <path d="M6 7.33337L2 7.33337" stroke-opacity="0.88" stroke-linecap="round" />
    <path
      d="M10.9947 10.8722L11.2913 10.4697L11.2913 10.4697L10.9947 10.8722ZM11.668 6.73744L11.3107 7.08724C11.4048 7.1833 11.5335 7.23744 11.668 7.23744C11.8024 7.23744 11.9312 7.1833 12.0252 7.08724L11.668 6.73744ZM12.3413 10.8722L12.6379 11.2747L12.6379 11.2747L12.3413 10.8722ZM11.668 11.2069L11.668 10.7069L11.668 10.7069L11.668 11.2069ZM11.2913 10.4697C10.8623 10.1535 10.3129 9.70455 9.87581 9.20532C9.42316 8.68836 9.16797 8.20425 9.16797 7.80985H8.16797C8.16797 8.58384 8.63387 9.30494 9.12346 9.86408C9.62855 10.4409 10.2426 10.939 10.698 11.2747L11.2913 10.4697ZM9.16797 7.80985C9.16797 7.07135 9.49766 6.68249 9.83686 6.55566C10.1816 6.42673 10.7314 6.49554 11.3107 7.08724L12.0252 6.38763C11.2546 5.60061 10.3043 5.31323 9.48662 5.619C8.6633 5.92685 8.16797 6.76355 8.16797 7.80985H9.16797ZM12.6379 11.2747C13.0934 10.939 13.7074 10.4409 14.2125 9.86409C14.7021 9.30495 15.168 8.58384 15.168 7.80984H14.168C14.168 8.20425 13.9128 8.68838 13.4601 9.20533C13.023 9.70456 12.4737 10.1535 12.0446 10.4697L12.6379 11.2747ZM15.168 7.80984C15.168 6.76355 14.6726 5.92685 13.8493 5.61899C13.0316 5.31323 12.0813 5.60061 11.3107 6.38763L12.0252 7.08724C12.6046 6.49554 13.1543 6.42673 13.4991 6.55565C13.8383 6.68249 14.168 7.07135 14.168 7.80984H15.168ZM10.698 11.2747C10.9592 11.4671 11.2514 11.7069 11.668 11.7069L11.668 10.7069C11.6581 10.7069 11.6468 10.7084 11.6007 10.6835C11.5352 10.648 11.4533 10.589 11.2913 10.4697L10.698 11.2747ZM12.0446 10.4697C11.8827 10.589 11.8008 10.648 11.7353 10.6835C11.6892 10.7084 11.6779 10.7069 11.668 10.7069L11.668 11.7069C12.0845 11.7069 12.3768 11.4671 12.6379 11.2747L12.0446 10.4697Z"
      fill-opacity="0.88" />
  </symbol>



  <symbol id="delete-icon" viewBox="0 0 16 16">
    <path d="M13.6654 4H2.33203" stroke-linecap="round" />
    <path
      d="M12.5564 5.66663L12.2498 10.266C12.1318 12.036 12.0728 12.9209 11.4961 13.4605C10.9195 14 10.0325 14 8.25866 14H7.74308C5.96921 14 5.08228 14 4.50561 13.4605C3.92893 12.9209 3.86994 12.036 3.75194 10.266L3.44531 5.66663"
      stroke-linecap="round" />
    <path d="M6.33203 7.33337L6.66536 10.6667" stroke-linecap="round" />
    <path d="M9.66537 7.33337L9.33203 10.6667" stroke-linecap="round" />
    <path
      d="M4.33203 4C4.36928 4 4.38791 4 4.4048 3.99957C4.95376 3.98566 5.43805 3.63661 5.62484 3.12021C5.63059 3.10433 5.63648 3.08666 5.64826 3.05132L5.71298 2.85714C5.76824 2.69139 5.79586 2.6085 5.83251 2.53813C5.97871 2.25738 6.24919 2.06242 6.56177 2.01251C6.64012 2 6.72748 2 6.90221 2H9.09519C9.26992 2 9.35728 2 9.43563 2.01251C9.7482 2.06242 10.0187 2.25738 10.1649 2.53813C10.2015 2.6085 10.2292 2.69138 10.2844 2.85714L10.3491 3.05132C10.3609 3.08661 10.3668 3.10434 10.3726 3.12021C10.5593 3.63661 11.0436 3.98566 11.5926 3.99957C11.6095 4 11.6281 4 11.6654 4" />
  </symbol>

  <symbol id="dots-icon" viewBox="0 0 20 20">
    <path
      d="M5.83333 10C5.83333 10.9205 5.08714 11.6667 4.16667 11.6667C3.24619 11.6667 2.5 10.9205 2.5 10C2.5 9.07957 3.24619 8.33337 4.16667 8.33337C5.08714 8.33337 5.83333 9.07957 5.83333 10Z" />
    <path
      d="M11.6667 10C11.6667 10.9205 10.9205 11.6667 10 11.6667C9.07952 11.6667 8.33333 10.9205 8.33333 10C8.33333 9.07957 9.07952 8.33337 10 8.33337C10.9205 8.33337 11.6667 9.07957 11.6667 10Z" />
    <path
      d="M17.5 10C17.5 10.9205 16.7538 11.6667 15.8333 11.6667C14.9129 11.6667 14.1667 10.9205 14.1667 10C14.1667 9.07957 14.9129 8.33337 15.8333 8.33337C16.7538 8.33337 17.5 9.07957 17.5 10Z" />
  </symbol>


  <symbol id="close-icon" viewBox="0 0 20 20">
    <path d="M15 5.00004L5 15M4.99996 5L14.9999 15" stroke-linecap="round" />
  </symbol>


  <symbol id="refresh-icon" viewBox="0 0 24 24">
    <path
      d="M18.364 8.05026L17.6569 7.34315C14.5327 4.21896 9.46734 4.21896 6.34315 7.34315C3.21895 10.4673 3.21895 15.5327 6.34315 18.6569C9.46734 21.7811 14.5327 21.7811 17.6569 18.6569C19.4737 16.84 20.234 14.3668 19.9377 12.0005M18.364 8.05026H14.1213M18.364 8.05026V3.80762"
      stroke-linecap="round" stroke-linejoin="round" />
  </symbol>

  <symbol id="plus-icon" viewBox="0 0 20 20">
    <path
      d="M1.66797 9.99996C1.66797 6.07159 1.66797 4.1074 2.88836 2.88701C4.10875 1.66663 6.07293 1.66663 10.0013 1.66663C13.9297 1.66663 15.8939 1.66663 17.1142 2.88701C18.3346 4.1074 18.3346 6.07159 18.3346 9.99996C18.3346 13.9283 18.3346 15.8925 17.1142 17.1129C15.8939 18.3333 13.9297 18.3333 10.0013 18.3333C6.07293 18.3333 4.10875 18.3333 2.88836 17.1129C1.66797 15.8925 1.66797 13.9283 1.66797 9.99996Z" />
    <path d="M12.5 10L10 10M10 10L7.5 10M10 10L10 7.5M10 10L10 12.5" stroke-linecap="round" />
  </symbol>

  <symbol id="tab-icon1" viewBox="0 0 16 16">
    <path
      d="M1.66602 4.33332C1.66602 3.07624 1.66602 2.44771 2.05654 2.05718C2.44706 1.66666 3.0756 1.66666 4.33268 1.66666C5.58976 1.66666 6.2183 1.66666 6.60882 2.05718C6.99935 2.44771 6.99935 3.07624 6.99935 4.33332C6.99935 5.5904 6.99935 6.21894 6.60882 6.60947C6.2183 6.99999 5.58976 6.99999 4.33268 6.99999C3.0756 6.99999 2.44706 6.99999 2.05654 6.60947C1.66602 6.21894 1.66602 5.5904 1.66602 4.33332Z" />
    <path
      d="M9 11.6667C9 10.4096 9 9.78105 9.39052 9.39052C9.78105 9 10.4096 9 11.6667 9C12.9237 9 13.5523 9 13.9428 9.39052C14.3333 9.78105 14.3333 10.4096 14.3333 11.6667C14.3333 12.9237 14.3333 13.5523 13.9428 13.9428C13.5523 14.3333 12.9237 14.3333 11.6667 14.3333C10.4096 14.3333 9.78105 14.3333 9.39052 13.9428C9 13.5523 9 12.9237 9 11.6667Z" />
    <path
      d="M1.66602 11.6667C1.66602 10.4096 1.66602 9.78105 2.05654 9.39052C2.44706 9 3.0756 9 4.33268 9C5.58976 9 6.2183 9 6.60882 9.39052C6.99935 9.78105 6.99935 10.4096 6.99935 11.6667C6.99935 12.9237 6.99935 13.5523 6.60882 13.9428C6.2183 14.3333 5.58976 14.3333 4.33268 14.3333C3.0756 14.3333 2.44706 14.3333 2.05654 13.9428C1.66602 13.5523 1.66602 12.9237 1.66602 11.6667Z" />
    <path
      d="M9 4.33332C9 3.07624 9 2.44771 9.39052 2.05718C9.78105 1.66666 10.4096 1.66666 11.6667 1.66666C12.9237 1.66666 13.5523 1.66666 13.9428 2.05718C14.3333 2.44771 14.3333 3.07624 14.3333 4.33332C14.3333 5.5904 14.3333 6.21894 13.9428 6.60947C13.5523 6.99999 12.9237 6.99999 11.6667 6.99999C10.4096 6.99999 9.78105 6.99999 9.39052 6.60947C9 6.21894 9 5.5904 9 4.33332Z" />
  </symbol>

  <symbol id="tab-icon2" viewBox="0 0 16 16">
    <path
      d="M1.66602 4.33332C1.66602 3.07624 1.66602 2.44771 2.59351 2.05718C3.52101 1.66666 5.01379 1.66666 7.99935 1.66666C10.9849 1.66666 12.4777 1.66666 13.4052 2.05718C14.3327 2.44771 14.3327 3.07624 14.3327 4.33332C14.3327 5.5904 14.3327 6.21894 13.4052 6.60947C12.4777 6.99999 10.9849 6.99999 7.99935 6.99999C5.01379 6.99999 3.52101 6.99999 2.59351 6.60947C1.66602 6.21894 1.66602 5.5904 1.66602 4.33332Z" />
    <path
      d="M1.66602 11.6667C1.66602 10.4096 1.66602 9.78105 2.59351 9.39052C3.52101 9 5.01379 9 7.99935 9C10.9849 9 12.4777 9 13.4052 9.39052C14.3327 9.78105 14.3327 10.4096 14.3327 11.6667C14.3327 12.9237 14.3327 13.5523 13.4052 13.9428C12.4777 14.3333 10.9849 14.3333 7.99935 14.3333C5.01379 14.3333 3.52101 14.3333 2.59351 13.9428C1.66602 13.5523 1.66602 12.9237 1.66602 11.6667Z" />
  </symbol>

  <symbol id="check-icon" viewBox="0 0 17 16">
    <path d="M5.16602 8.6L7.26125 11L12.4993 5" stroke-linecap="round" stroke-linejoin="round" />
  </symbol>

  <symbol id="filter-close" viewBox="0 0 16 16">
    <path fill-rule="evenodd" clip-rule="evenodd"
      d="M14.6673 7.99998C14.6673 11.6819 11.6825 14.6666 8.00065 14.6666C4.31875 14.6666 1.33398 11.6819 1.33398 7.99998C1.33398 4.31808 4.31875 1.33331 8.00065 1.33331C11.6825 1.33331 14.6673 4.31808 14.6673 7.99998ZM5.9804 5.97975C6.17567 5.78448 6.49225 5.78448 6.68751 5.97975L8.00063 7.29287L9.31374 5.97976C9.509 5.7845 9.82558 5.7845 10.0208 5.97976C10.2161 6.17502 10.2161 6.4916 10.0208 6.68687L8.70774 7.99997L10.0208 9.31307C10.2161 9.50833 10.2161 9.82491 10.0208 10.0202C9.82557 10.2154 9.50898 10.2154 9.31372 10.0202L8.00063 8.70708L6.68752 10.0202C6.49226 10.2154 6.17568 10.2154 5.98042 10.0202C5.78516 9.82492 5.78516 9.50834 5.98042 9.31308L7.29352 7.99997L5.9804 6.68685C5.78514 6.49159 5.78514 6.17501 5.9804 5.97975Z" />
  </symbol>

  <symbol id="add-icon" viewBox="0 0 20 20">
    <path d="M12.084 5.41666H14.584M14.584 5.41666H17.084M14.584 5.41666V7.91666M14.584 5.41666V2.91666"
      stroke-linecap="round" />
    <path
      d="M2.08398 5.41668C2.08398 3.84533 2.08398 3.05965 2.57214 2.5715C3.0603 2.08334 3.84597 2.08334 5.41732 2.08334C6.98867 2.08334 7.77434 2.08334 8.2625 2.5715C8.75065 3.05965 8.75065 3.84533 8.75065 5.41668C8.75065 6.98803 8.75065 7.7737 8.2625 8.26186C7.77434 8.75001 6.98867 8.75001 5.41732 8.75001C3.84597 8.75001 3.0603 8.75001 2.57214 8.26186C2.08398 7.7737 2.08398 6.98803 2.08398 5.41668Z" />
    <path
      d="M11.25 14.5833C11.25 13.012 11.25 12.2263 11.7382 11.7382C12.2263 11.25 13.012 11.25 14.5833 11.25C16.1547 11.25 16.9404 11.25 17.4285 11.7382C17.9167 12.2263 17.9167 13.012 17.9167 14.5833C17.9167 16.1547 17.9167 16.9404 17.4285 17.4285C16.9404 17.9167 16.1547 17.9167 14.5833 17.9167C13.012 17.9167 12.2263 17.9167 11.7382 17.4285C11.25 16.9404 11.25 16.1547 11.25 14.5833Z" />
    <path
      d="M2.08398 14.5833C2.08398 13.012 2.08398 12.2263 2.57214 11.7382C3.0603 11.25 3.84597 11.25 5.41732 11.25C6.98867 11.25 7.77434 11.25 8.2625 11.7382C8.75065 12.2263 8.75065 13.012 8.75065 14.5833C8.75065 16.1547 8.75065 16.9404 8.2625 17.4285C7.77434 17.9167 6.98867 17.9167 5.41732 17.9167C3.84597 17.9167 3.0603 17.9167 2.57214 17.4285C2.08398 16.9404 2.08398 16.1547 2.08398 14.5833Z" />
  </symbol>

  <symbol id="phone" viewBox="0 0 20 20">
    <path
      d="M13.4174 11.1325L13.0649 10.7779L13.0649 10.7779L13.4174 11.1325ZM13.797 10.7551L14.1495 11.1097L14.1495 11.1097L13.797 10.7551ZM15.8108 10.4911L15.572 10.9304L15.572 10.9304L15.8108 10.4911ZM17.4029 11.3566L17.1641 11.7959L17.4029 11.3566ZM17.8516 14.0691L18.2041 14.4237L18.2041 14.4237L17.8516 14.0691ZM16.6678 15.2462L16.3152 14.8916L16.3152 14.8916L16.6678 15.2462ZM15.5637 15.8042L15.6101 16.3021L15.6101 16.3021L15.5637 15.8042ZM7.3463 12.2721L7.69884 11.9175L7.3463 12.2721ZM3.3359 4.78796L2.83671 4.81633L2.83671 4.81633L3.3359 4.78796ZM8.73143 5.99778L9.08397 6.35234L9.08397 6.35234L8.73143 5.99778ZM8.86203 3.7862L9.2623 3.48655L9.2623 3.48655L8.86203 3.7862ZM7.81121 2.38253L7.41095 2.68217L7.41095 2.68217L7.81121 2.38253ZM5.21804 2.14565L5.57058 2.50021L5.57058 2.50021L5.21804 2.14565ZM3.91004 3.44622L3.55749 3.09167L3.55749 3.09167L3.91004 3.44622ZM10.0528 9.58099L10.4053 9.22643L10.0528 9.58099ZM13.77 11.487L14.1495 11.1097L13.4444 10.4005L13.0649 10.7779L13.77 11.487ZM15.572 10.9304L17.1641 11.7959L17.6417 10.9173L16.0496 10.0518L15.572 10.9304ZM17.499 13.7145L16.3152 14.8916L17.0203 15.6007L18.2041 14.4237L17.499 13.7145ZM15.5173 15.3064C14.2792 15.4218 11.1143 15.3136 7.69884 11.9175L6.99375 12.6267C10.6563 16.2684 14.1326 16.4398 15.6101 16.3021L15.5173 15.3064ZM7.69884 11.9175C4.45048 8.68762 3.90334 5.96036 3.8351 4.75959L2.83671 4.81633C2.91871 6.25926 3.5677 9.22006 6.99375 12.6267L7.69884 11.9175ZM8.84496 6.58999L9.08397 6.35234L8.37888 5.64322L8.13987 5.88088L8.84496 6.58999ZM9.2623 3.48655L8.21147 2.08288L7.41095 2.68217L8.46177 4.08584L9.2623 3.48655ZM4.86549 1.79109L3.55749 3.09167L4.26258 3.80078L5.57058 2.50021L4.86549 1.79109ZM8.49242 6.23543C8.13987 5.88088 8.13939 5.88135 8.13891 5.88183C8.13875 5.88199 8.13827 5.88248 8.13794 5.88281C8.13728 5.88347 8.1366 5.88415 8.13592 5.88485C8.13454 5.88625 8.13311 5.88771 8.13163 5.88926C8.12866 5.89234 8.12548 5.89571 8.1221 5.89938C8.11535 5.90671 8.10781 5.91523 8.09965 5.92497C8.08333 5.94444 8.06451 5.96881 8.04452 5.99831C8.00446 6.05743 7.96002 6.13677 7.92204 6.23756C7.84473 6.44274 7.80107 6.71867 7.85506 7.06667C7.96101 7.74959 8.43631 8.67882 9.70022 9.93555L10.4053 9.22643C9.20671 8.03464 8.90184 7.29109 8.84324 6.91336C8.81496 6.73104 8.84293 6.62968 8.85782 6.59014C8.86594 6.56859 8.87274 6.55871 8.8724 6.55922C8.87227 6.5594 8.87042 6.56211 8.86612 6.56724C8.86397 6.56981 8.8612 6.573 8.85771 6.57679C8.85596 6.57868 8.85403 6.58073 8.85191 6.58293C8.85085 6.58403 8.84975 6.58517 8.84859 6.58635C8.84801 6.58694 8.84742 6.58753 8.84681 6.58814C8.84651 6.58845 8.84605 6.58891 8.8459 6.58906C8.84543 6.58953 8.84496 6.58999 8.49242 6.23543ZM9.70022 9.93555C10.9645 11.1926 11.8982 11.6642 12.5827 11.7692C12.9313 11.8226 13.2073 11.7794 13.4125 11.7029C13.5134 11.6654 13.5928 11.6214 13.6521 11.5817C13.6817 11.5618 13.7061 11.5432 13.7257 11.527C13.7355 11.5189 13.744 11.5114 13.7514 11.5047C13.7551 11.5013 13.7585 11.4982 13.7615 11.4952C13.7631 11.4938 13.7646 11.4923 13.766 11.491C13.7667 11.4903 13.7674 11.4896 13.768 11.489C13.7684 11.4886 13.7688 11.4882 13.769 11.488C13.7695 11.4875 13.77 11.487 13.4174 11.1325C13.0649 10.7779 13.0654 10.7775 13.0658 10.777C13.066 10.7768 13.0664 10.7764 13.0667 10.7761C13.0674 10.7755 13.068 10.7749 13.0685 10.7743C13.0697 10.7732 13.0709 10.7721 13.072 10.771C13.0742 10.7689 13.0762 10.767 13.0781 10.7653C13.082 10.7618 13.0851 10.7591 13.0877 10.7569C13.0928 10.7527 13.0955 10.7509 13.0956 10.7508C13.0959 10.7506 13.0856 10.7576 13.0634 10.7658C13.0225 10.7811 12.9191 10.8091 12.7343 10.7807C12.3522 10.7221 11.6036 10.4179 10.4053 9.22643L9.70022 9.93555ZM8.21147 2.08288C7.40477 1.0053 5.8228 0.83922 4.86549 1.79109L5.57058 2.50021C6.07079 2.00284 6.94603 2.06115 7.41095 2.68217L8.21147 2.08288ZM3.8351 4.7596C3.81611 4.42552 3.97037 4.09134 4.26258 3.80078L3.55749 3.09167C3.12701 3.5197 2.79697 4.11706 2.83671 4.81633L3.8351 4.7596ZM16.3152 14.8916C16.0718 15.1336 15.8007 15.28 15.5173 15.3064L15.6101 16.3021C16.1858 16.2484 16.6617 15.9573 17.0203 15.6007L16.3152 14.8916ZM9.08397 6.35234C9.85807 5.58264 9.91796 4.36237 9.2623 3.48655L8.46177 4.08584C8.8335 4.5824 8.78238 5.24202 8.37888 5.64322L9.08397 6.35234ZM17.1641 11.7959C17.9138 12.2034 18.0438 13.1728 17.499 13.7145L18.2041 14.4237C19.2575 13.3763 18.9369 11.6214 17.6417 10.9173L17.1641 11.7959ZM14.1495 11.1097C14.5105 10.7508 15.0861 10.6662 15.572 10.9304L16.0497 10.0518C15.193 9.58615 14.1328 9.71604 13.4444 10.4005L14.1495 11.1097Z" />
  </symbol>
  <symbol id="location" viewBox="0 0 21 20">
    <path
      d="M4 8.4527C4 4.70486 6.98477 1.66663 10.6667 1.66663C14.3486 1.66663 17.3333 4.70486 17.3333 8.4527C17.3333 12.1712 15.2056 16.5103 11.8858 18.062C11.1119 18.4237 10.2215 18.4237 9.44756 18.062C6.12777 16.5103 4 12.1712 4 8.4527Z"
      stroke-opacity="0.6" />
    <ellipse cx="10.6665" cy="8.33337" rx="2.5" ry="2.5" stroke-opacity="0.6" />
  </symbol>

  <symbol id="code-icon" viewBox="0 0 20 20">
    <path
      d="M18.3307 11.6667C18.3307 14.8094 18.3307 16.3807 17.3544 17.357C16.3781 18.3334 14.8068 18.3334 11.6641 18.3334"
      stroke-opacity="0.6" stroke-linecap="round" />
    <path
      d="M8.33073 18.3334C5.18803 18.3334 3.61668 18.3334 2.64037 17.357C1.66406 16.3807 1.66406 14.8094 1.66406 11.6667"
      stroke-opacity="0.6" stroke-linecap="round" />
    <path
      d="M8.33073 1.66669C5.18803 1.66669 3.61668 1.66669 2.64037 2.643C1.66406 3.61931 1.66406 5.19066 1.66406 8.33335"
      stroke-opacity="0.6" stroke-linecap="round" />
    <path
      d="M11.6641 1.66669C14.8068 1.66669 16.3781 1.66669 17.3544 2.643C18.3307 3.61931 18.3307 5.19066 18.3307 8.33335"
      stroke-opacity="0.6" stroke-linecap="round" />
    <path d="M15 5L15 10" stroke-opacity="0.6" stroke-linecap="round" />
    <path d="M15 11.6667L15 15" stroke-opacity="0.6" stroke-linecap="round" />
    <path d="M11.6641 5L11.6641 10" stroke-opacity="0.6" stroke-linecap="round" />
    <path d="M13.3359 5L13.3359 10" stroke-opacity="0.6" stroke-linecap="round" />
    <path d="M11.6641 11.6667L11.6641 15" stroke-opacity="0.6" stroke-linecap="round" />
    <path d="M13.3359 11.6667L13.3359 15" stroke-opacity="0.6" stroke-linecap="round" />
    <path d="M9.16406 5L9.16406 10" stroke-opacity="0.6" stroke-linecap="round" />
    <path d="M9.16406 11.6667L9.16406 15" stroke-opacity="0.6" stroke-linecap="round" />
    <path d="M6.66406 5L6.66406 10" stroke-opacity="0.6" stroke-linecap="round" />
    <path d="M6.66406 11.6667L6.66406 15" stroke-opacity="0.6" stroke-linecap="round" />
    <path d="M5 5L5 10" stroke-opacity="0.6" stroke-linecap="round" />
    <path d="M5 11.6667L5 15" stroke-opacity="0.6" stroke-linecap="round" />
    <path d="M16.6641 10L3.33073 10" stroke-opacity="0.6" stroke-linecap="round" />
  </symbol>

  <symbol id="login-icon" viewBox="0 0 20 20">
    <path d="M1.66748 9.99902L13.3341 9.99902M13.3341 9.99902L10.4175 7.49902M13.3341 9.99902L10.4175 12.499"
      stroke-linecap="round" stroke-linejoin="round" />
    <path
      d="M5.83334 5.83317C5.84343 4.02065 5.92381 3.03906 6.56413 2.39874C7.29636 1.6665 8.47487 1.6665 10.8319 1.6665L11.6652 1.6665C14.0223 1.6665 15.2008 1.6665 15.933 2.39874C16.6652 3.13097 16.6652 4.30948 16.6652 6.6665L16.6652 13.3332C16.6652 15.6902 16.6652 16.8687 15.933 17.6009C15.2008 18.3332 14.0223 18.3332 11.6652 18.3332L10.8319 18.3332C8.47487 18.3332 7.29636 18.3332 6.56413 17.6009C5.92381 16.9606 5.84343 15.979 5.83334 14.1665"
      stroke-linecap="round" />
  </symbol>

  <symbol id="tabbar-icon1" viewBox="0 0 24 24">
    <path
      d="M4 6V18C4 20.2091 7.58172 22 12 22C16.4183 22 20 20.2091 20 18V6M4 6C4 8.20914 7.58172 10 12 10C16.4183 10 20 8.20914 20 6M4 6C4 3.79086 7.58172 2 12 2C16.4183 2 20 3.79086 20 6M20 12C20 14.2091 16.4183 16 12 16C7.58172 16 4 14.2091 4 12" />
  </symbol>


  <symbol id="tabbar-icon2" viewBox="0 0 24 24">
    <path
      d="M2.73183 8.34093L2.24154 8.24287L2.73183 8.34093ZM8.77549 9.24527L9.27301 9.29502L8.77549 9.24527ZM5.66628 2.10675L5.79847 2.58896L5.66628 2.10675ZM3.32975 5.35133L3.82004 5.44938L3.32975 5.35133ZM3.77791 3.65484L3.33099 3.43064L3.77791 3.65484ZM8.84828 8.51737L9.3458 8.56712L8.84828 8.51737ZM10.7502 2.5C11.0264 2.5 11.2502 2.27614 11.2502 2C11.2502 1.72386 11.0264 1.5 10.7502 1.5V2.5ZM14.9456 10V9.5H14.6063L14.481 9.81532L14.9456 10ZM21.6086 10.1738C21.7045 9.91485 21.5724 9.62714 21.3135 9.53117C21.0546 9.4352 20.7669 9.5673 20.6709 9.82623L21.6086 10.1738ZM15.398 10L15.8672 9.82711L15.7466 9.5H15.398V10ZM9.00002 21.5C9.00002 21.7761 9.22388 22 9.50002 22C9.77616 22 10 21.7761 10 21.5H9.00002ZM14 21.5C14 21.7761 14.2239 22 14.5 22C14.7762 22 15 21.7761 15 21.5H14ZM13.75 16.201L14 15.7679L13.75 16.201ZM14.2991 16.75L13.866 17L14.2991 16.75ZM9.70098 16.75L10.134 17L9.70098 16.75ZM10.25 16.201L10.5 16.634L10.25 16.201ZM12.5 22V21.5H11.5V22V22.5H12.5V22ZM3.50002 14H4.00002V11H3.50002H3.00002V14H3.50002ZM20.5 11H20V14H20.5H21V11H20.5ZM11.5 22V21.5C9.60027 21.5 8.22575 21.4989 7.17756 21.358C6.14374 21.219 5.50255 20.9523 5.02514 20.4749L4.67159 20.8284L4.31804 21.182C5.01221 21.8762 5.89961 22.1952 7.04431 22.3491C8.17462 22.5011 9.62853 22.5 11.5 22.5V22ZM3.50002 14H3.00002C3.00002 15.8715 2.99896 17.3254 3.15092 18.4557C3.30482 19.6004 3.62387 20.4878 4.31804 21.182L4.67159 20.8284L5.02514 20.4749C4.54774 19.9975 4.281 19.3563 4.14201 18.3225C4.00108 17.2743 4.00002 15.8998 4.00002 14H3.50002ZM12.5 22V22.5C14.3715 22.5 15.8254 22.5011 16.9557 22.3491C18.1004 22.1952 18.9878 21.8762 19.682 21.182L19.3284 20.8284L18.9749 20.4749C18.4975 20.9523 17.8563 21.219 16.8225 21.358C15.7743 21.4989 14.3998 21.5 12.5 21.5V22ZM20.5 14H20C20 15.8998 19.999 17.2743 19.858 18.3225C19.719 19.3563 19.4523 19.9975 18.9749 20.4749L19.3284 20.8284L19.682 21.182C20.3762 20.4878 20.6952 19.6004 20.8491 18.4557C21.0011 17.3254 21 15.8715 21 14H20.5ZM7.41771 2V2.5H9.50002V2V1.5H7.41771V2ZM9.50002 2L9.0025 1.95025L8.27797 9.19552L8.77549 9.24527L9.27301 9.29502L9.99754 2.04975L9.50002 2ZM2.73183 8.34093L3.22212 8.43899L3.82004 5.44938L3.32975 5.35133L2.83946 5.25327L2.24154 8.24287L2.73183 8.34093ZM5.73155 12V11.5C4.11662 11.5 2.90541 10.0226 3.22212 8.43899L2.73183 8.34093L2.24154 8.24287C1.80107 10.4452 3.48558 12.5 5.73155 12.5V12ZM8.77549 9.24527L8.27797 9.19552C8.14715 10.5037 7.0463 11.5 5.73155 11.5V12V12.5C7.56006 12.5 9.09107 11.1145 9.27301 9.29502L8.77549 9.24527ZM7.41771 2V1.5C6.54064 1.5 6.00432 1.49563 5.53409 1.62454L5.66628 2.10675L5.79847 2.58896C6.10702 2.50437 6.47873 2.5 7.41771 2.5V2ZM3.32975 5.35133L3.82004 5.44938C4.00419 4.52864 4.08138 4.165 4.22483 3.87903L3.77791 3.65484L3.33099 3.43064C3.11237 3.86647 3.01147 4.39322 2.83946 5.25327L3.32975 5.35133ZM5.66628 2.10675L5.53409 1.62454C4.57685 1.88695 3.77604 2.54346 3.33099 3.43064L3.77791 3.65484L4.22483 3.87903C4.54272 3.24533 5.11473 2.7764 5.79847 2.58896L5.66628 2.10675ZM8.84828 8.51737L9.3458 8.56712L9.99754 2.04975L9.50002 2L9.0025 1.95025L8.35076 8.46762L8.84828 8.51737ZM12 12V11.5C10.4219 11.5 9.18877 10.1374 9.3458 8.56712L8.84828 8.51737L8.35076 8.46762C8.13487 10.6266 9.83027 12.5 12 12.5V12ZM9.50002 2V2.5H10.7502V2V1.5H9.50002V2ZM14.9456 10L14.481 9.81532C14.0909 10.7967 13.1338 11.5 12 11.5V12V12.5C13.5613 12.5 14.8755 11.53 15.4103 10.1847L14.9456 10ZM18.2685 12V12.5C19.8267 12.5 21.113 11.5107 21.6086 10.1738L21.1397 10L20.6709 9.82623C20.313 10.7919 19.3866 11.5 18.2685 11.5V12ZM15.398 10L14.9288 10.1729C15.4332 11.5416 16.7475 12.5 18.2685 12.5V12V11.5C17.1757 11.5 16.2299 10.8115 15.8672 9.82711L15.398 10ZM9.50002 21.5H10V18.5H9.50002H9.00002V21.5H9.50002ZM14.5 18.5H14V21.5H14.5H15V18.5H14.5ZM12 16V16.5C12.4765 16.5 12.8005 16.5005 13.0498 16.5231C13.2923 16.5451 13.4148 16.5848 13.5 16.634L13.75 16.201L14 15.7679C13.7372 15.6162 13.4519 15.5554 13.1401 15.5272C12.8351 15.4995 12.4581 15.5 12 15.5V16ZM14.5 18.5H15C15 18.0419 15.0005 17.6649 14.9729 17.3599C14.9446 17.0481 14.8838 16.7628 14.7321 16.5L14.2991 16.75L13.866 17C13.9153 17.0853 13.955 17.2077 13.9769 17.4502C13.9995 17.6995 14 18.0235 14 18.5H14.5ZM13.75 16.201L13.5 16.634C13.652 16.7217 13.7783 16.848 13.866 17L14.2991 16.75L14.7321 16.5C14.5565 16.196 14.3041 15.9435 14 15.7679L13.75 16.201ZM9.50002 18.5H10C10 18.0235 10.0005 17.6995 10.0231 17.4502C10.0451 17.2077 10.0848 17.0853 10.134 17L9.70098 16.75L9.26797 16.5C9.11623 16.7628 9.05544 17.0481 9.02718 17.3599C8.99954 17.6649 9.00002 18.0419 9.00002 18.5H9.50002ZM12 16V15.5C11.5419 15.5 11.1649 15.4995 10.8599 15.5272C10.5481 15.5554 10.2628 15.6162 10 15.7679L10.25 16.201L10.5 16.634C10.5853 16.5848 10.7077 16.5451 10.9502 16.5231C11.1996 16.5005 11.5235 16.5 12 16.5V16ZM9.70098 16.75L10.134 17C10.2218 16.848 10.348 16.7217 10.5 16.634L10.25 16.201L10 15.7679C9.69598 15.9435 9.4435 16.196 9.26797 16.5L9.70098 16.75ZM15.398 10V9.5H14.9456V10V10.5H15.398V10Z" />
    <path fill-rule="evenodd" clip-rule="evenodd"
      d="M21.3493 3.94361C21.2619 3.91628 21.1697 3.90612 21.0782 3.91371C20.9867 3.92131 20.8976 3.94651 20.8161 3.98786C20.7346 4.0292 20.6623 4.08588 20.6034 4.15462C20.5445 4.22336 20.5002 4.3028 20.4729 4.38834C20.4177 4.55861 20.4338 4.73569 20.5036 4.88552C19.8381 5.47941 19.2229 5.91937 18.8988 5.81721C18.4798 5.68509 18.7969 4.57427 19.2061 3.56153C19.3856 3.58823 19.569 3.55122 19.7229 3.45724C19.8768 3.36325 19.9911 3.21853 20.0448 3.04937C20.1066 2.86087 20.0896 2.6562 19.9976 2.47983C19.9055 2.30347 19.7458 2.16965 19.5532 2.10746C19.4579 2.0777 19.3575 2.06663 19.2579 2.0749C19.1582 2.08316 19.0612 2.1106 18.9724 2.15562C18.8837 2.20063 18.8049 2.26235 18.7408 2.33719C18.6766 2.41204 18.6283 2.49854 18.5985 2.5917C18.5078 2.87093 18.5923 3.16379 18.7906 3.35585C18.2459 4.32977 17.6781 5.17225 17.1809 5.03059L17.1627 5.02582C16.6627 4.86781 16.6955 3.85235 16.8261 2.74085C17.1055 2.70203 17.3527 2.50997 17.4442 2.22733C17.5062 2.03892 17.4894 1.83424 17.3974 1.65785C17.3055 1.48145 17.1459 1.3476 16.9532 1.28542C16.8579 1.25555 16.7575 1.24441 16.6577 1.25262C16.558 1.26083 16.4609 1.28824 16.372 1.33327C16.2832 1.3783 16.2044 1.44004 16.1402 1.51495C16.076 1.58985 16.0276 1.67642 15.9979 1.76965C15.8833 2.12176 16.0468 2.49635 16.368 2.66185C16.1047 3.7209 15.7074 4.80583 15.2884 4.67371C14.9664 4.57155 14.7255 3.86597 14.5341 3.0051C14.6538 2.93972 14.7513 2.84179 14.8149 2.72327C14.8785 2.60475 14.9053 2.47075 14.8921 2.33761C14.8789 2.20448 14.8263 2.07796 14.7407 1.97348C14.655 1.869 14.5401 1.79108 14.4098 1.74922C14.3223 1.72191 14.2301 1.71178 14.1385 1.71942C14.047 1.72705 13.9579 1.75231 13.8764 1.79373C13.7949 1.83514 13.7226 1.8919 13.6638 1.96071C13.6049 2.02952 13.5606 2.10903 13.5334 2.19464C13.5033 2.28682 13.4934 2.38415 13.5043 2.48031C13.5153 2.57646 13.5469 2.66928 13.5971 2.75273C13.6473 2.83619 13.715 2.9084 13.7957 2.96467C13.8764 3.02094 13.9683 3.06001 14.0655 3.07934L14.1891 5.96569L19.0329 7.50012L20.8361 5.21856C20.926 5.26059 21.0242 5.28323 21.124 5.28495C21.2237 5.28667 21.3226 5.26743 21.4141 5.22853C21.5055 5.18963 21.5873 5.13199 21.6538 5.05952C21.7204 4.98705 21.7702 4.90146 21.7998 4.80856C21.9178 4.44691 21.716 4.05939 21.3493 3.94361Z" />
  </symbol>


  <symbol id="tabbar-icon3" viewBox="0 0 24 24">
    <path
      d="M2.5 6.5C2.5 4.61438 2.5 3.67157 3.08579 3.08579C3.67157 2.5 4.61438 2.5 6.5 2.5C8.38562 2.5 9.32843 2.5 9.91421 3.08579C10.5 3.67157 10.5 4.61438 10.5 6.5C10.5 8.38562 10.5 9.32843 9.91421 9.91421C9.32843 10.5 8.38562 10.5 6.5 10.5C4.61438 10.5 3.67157 10.5 3.08579 9.91421C2.5 9.32843 2.5 8.38562 2.5 6.5Z" />
    <path
      d="M13.5 17.5C13.5 15.6144 13.5 14.6716 14.0858 14.0858C14.6716 13.5 15.6144 13.5 17.5 13.5C19.3856 13.5 20.3284 13.5 20.9142 14.0858C21.5 14.6716 21.5 15.6144 21.5 17.5C21.5 19.3856 21.5 20.3284 20.9142 20.9142C20.3284 21.5 19.3856 21.5 17.5 21.5C15.6144 21.5 14.6716 21.5 14.0858 20.9142C13.5 20.3284 13.5 19.3856 13.5 17.5Z" />
    <path
      d="M2.5 17.5C2.5 15.6144 2.5 14.6716 3.08579 14.0858C3.67157 13.5 4.61438 13.5 6.5 13.5C8.38562 13.5 9.32843 13.5 9.91421 14.0858C10.5 14.6716 10.5 15.6144 10.5 17.5C10.5 19.3856 10.5 20.3284 9.91421 20.9142C9.32843 21.5 8.38562 21.5 6.5 21.5C4.61438 21.5 3.67157 21.5 3.08579 20.9142C2.5 20.3284 2.5 19.3856 2.5 17.5Z" />
    <path
      d="M13.5 6.5C13.5 4.61438 13.5 3.67157 14.0858 3.08579C14.6716 2.5 15.6144 2.5 17.5 2.5C19.3856 2.5 20.3284 2.5 20.9142 3.08579C21.5 3.67157 21.5 4.61438 21.5 6.5C21.5 8.38562 21.5 9.32843 20.9142 9.91421C20.3284 10.5 19.3856 10.5 17.5 10.5C15.6144 10.5 14.6716 10.5 14.0858 9.91421C13.5 9.32843 13.5 8.38562 13.5 6.5Z" />
  </symbol>

  <symbol id="tabbar-icon4" viewBox="0 0 24 24">
    <path
      d="M8 9.5C7.72386 9.5 7.5 9.72386 7.5 10C7.5 10.2761 7.72386 10.5 8 10.5V9.5ZM16 10.5C16.2761 10.5 16.5 10.2761 16.5 10C16.5 9.72386 16.2761 9.5 16 9.5V10.5ZM8 13.5C7.72386 13.5 7.5 13.7239 7.5 14C7.5 14.2761 7.72386 14.5 8 14.5V13.5ZM13 14.5C13.2761 14.5 13.5 14.2761 13.5 14C13.5 13.7239 13.2761 13.5 13 13.5V14.5ZM11 2V2.5H13V2V1.5H11V2ZM21 10H20.5V14H21H21.5V10H21ZM13 22V21.5H11V22V22.5H13V22ZM3 14H3.5V10H3H2.5V14H3ZM11 22V21.5C9.10025 21.5 7.72573 21.4989 6.67754 21.358C5.64373 21.219 5.00253 20.9523 4.52513 20.4749L4.17157 20.8284L3.81802 21.182C4.51219 21.8762 5.39959 22.1952 6.54429 22.3491C7.67461 22.5011 9.12852 22.5 11 22.5V22ZM3 14H2.5C2.5 15.8715 2.49894 17.3254 2.65091 18.4557C2.80481 19.6004 3.12385 20.4878 3.81802 21.182L4.17157 20.8284L4.52513 20.4749C4.04772 19.9975 3.78098 19.3563 3.64199 18.3225C3.50106 17.2743 3.5 15.8998 3.5 14H3ZM21 14H20.5C20.5 15.8998 20.4989 17.2743 20.358 18.3225C20.219 19.3563 19.9523 19.9975 19.4749 20.4749L19.8284 20.8284L20.182 21.182C20.8762 20.4878 21.1952 19.6004 21.3491 18.4557C21.5011 17.3254 21.5 15.8715 21.5 14H21ZM13 22V22.5C14.8715 22.5 16.3254 22.5011 17.4557 22.3491C18.6004 22.1952 19.4878 21.8762 20.182 21.182L19.8284 20.8284L19.4749 20.4749C18.9975 20.9523 18.3563 21.219 17.3225 21.358C16.2743 21.4989 14.8998 21.5 13 21.5V22ZM13 2V2.5C14.8998 2.5 16.2743 2.50106 17.3225 2.64199C18.3563 2.78098 18.9975 3.04772 19.4749 3.52513L19.8284 3.17157L20.182 2.81802C19.4878 2.12385 18.6004 1.80481 17.4557 1.65091C16.3254 1.49894 14.8715 1.5 13 1.5V2ZM21 10H21.5C21.5 8.12852 21.5011 6.67461 21.3491 5.54429C21.1952 4.39959 20.8762 3.51219 20.182 2.81802L19.8284 3.17157L19.4749 3.52513C19.9523 4.00253 20.219 4.64373 20.358 5.67754C20.4989 6.72573 20.5 8.10025 20.5 10H21ZM11 2V1.5C9.12852 1.5 7.67461 1.49894 6.54429 1.65091C5.39959 1.80481 4.51219 2.12385 3.81802 2.81802L4.17157 3.17157L4.52513 3.52513C5.00253 3.04772 5.64373 2.78098 6.67754 2.64199C7.72573 2.50106 9.10025 2.5 11 2.5V2ZM3 10H3.5C3.5 8.10025 3.50106 6.72573 3.64199 5.67754C3.78098 4.64373 4.04772 4.00253 4.52513 3.52513L4.17157 3.17157L3.81802 2.81802C3.12385 3.51219 2.80481 4.39959 2.65091 5.54429C2.49894 6.6746 2.5 8.12852 2.5 10H3ZM8 10V10.5H16V10V9.5H8V10ZM8 14V14.5H13V14V13.5H8V14Z" />
  </symbol>

  <symbol id="tabbar-icon5" viewBox="0 0 24 24">
    <path
      d="M12.9534 10.4899L13.208 10.9202L12.9534 10.4899ZM9.625 8.875C9.625 9.15114 9.84886 9.375 10.125 9.375C10.4011 9.375 10.625 9.15114 10.625 8.875H9.625ZM11.5 13C11.5 13.2761 11.7239 13.5 12 13.5C12.2761 13.5 12.5 13.2761 12.5 13H11.5ZM12 22V21.5C9.62884 21.5 7.90077 21.4989 6.58026 21.3214C5.27414 21.1458 4.44187 20.8058 3.81802 20.182L3.46447 20.5355L3.11091 20.8891C3.95153 21.7297 5.03 22.122 6.44702 22.3125C7.84965 22.5011 9.65711 22.5 12 22.5V22ZM2 12H1.5C1.5 14.3429 1.49894 16.1504 1.68752 17.553C1.87803 18.97 2.2703 20.0485 3.11091 20.8891L3.46447 20.5355L3.81802 20.182C3.19417 19.5581 2.8542 18.7259 2.6786 17.4197C2.50106 16.0992 2.5 14.3712 2.5 12H2ZM22 12H21.5C21.5 14.3712 21.4989 16.0992 21.3214 17.4197C21.1458 18.7259 20.8058 19.5581 20.182 20.182L20.5355 20.5355L20.8891 20.8891C21.7297 20.0485 22.122 18.97 22.3125 17.553C22.5011 16.1504 22.5 14.3429 22.5 12H22ZM12 22V22.5C14.3429 22.5 16.1504 22.5011 17.553 22.3125C18.97 22.122 20.0485 21.7297 20.8891 20.8891L20.5355 20.5355L20.182 20.182C19.5581 20.8058 18.7259 21.1458 17.4197 21.3214C16.0992 21.4989 14.3712 21.5 12 21.5V22ZM12 2V2.5C14.3712 2.5 16.0992 2.50106 17.4197 2.6786C18.7259 2.8542 19.5581 3.19417 20.182 3.81802L20.5355 3.46447L20.8891 3.11091C20.0485 2.2703 18.97 1.87803 17.553 1.68752C16.1504 1.49894 14.3429 1.5 12 1.5V2ZM22 12H22.5C22.5 9.65711 22.5011 7.84965 22.3125 6.44702C22.122 5.03 21.7297 3.95153 20.8891 3.11091L20.5355 3.46447L20.182 3.81802C20.8058 4.44187 21.1458 5.27414 21.3214 6.58026C21.4989 7.90077 21.5 9.62884 21.5 12H22ZM12 2V1.5C9.65711 1.5 7.84965 1.49894 6.44702 1.68752C5.03 1.87803 3.95153 2.2703 3.11091 3.11091L3.46447 3.46447L3.81802 3.81802C4.44187 3.19417 5.27414 2.8542 6.58026 2.6786C7.90077 2.50106 9.62884 2.5 12 2.5V2ZM2 12H2.5C2.5 9.62884 2.50106 7.90077 2.6786 6.58026C2.8542 5.27414 3.19417 4.44187 3.81802 3.81802L3.46447 3.46447L3.11091 3.11091C2.2703 3.95153 1.87803 5.03 1.68752 6.44702C1.49894 7.84965 1.5 9.65711 1.5 12H2ZM13.875 8.875H13.375C13.375 9.37852 13.1046 9.81942 12.6988 10.0596L12.9534 10.4899L13.208 10.9202C13.9054 10.5075 14.375 9.74637 14.375 8.875H13.875ZM10.125 8.875H10.625C10.625 8.11561 11.2406 7.5 12 7.5V7V6.5C10.6883 6.5 9.625 7.56332 9.625 8.875H10.125ZM12 7V7.5C12.7594 7.5 13.375 8.11561 13.375 8.875H13.875H14.375C14.375 7.56332 13.3117 6.5 12 6.5V7ZM12 11.75H11.5V13H12H12.5V11.75H12ZM12.9534 10.4899L12.6988 10.0596C12.4338 10.2163 12.1449 10.4265 11.9172 10.6948C11.6875 10.9655 11.5 11.3207 11.5 11.75H12H12.5C12.5 11.627 12.5515 11.4928 12.6797 11.3418C12.8099 11.1884 12.9976 11.0447 13.208 10.9202L12.9534 10.4899Z" />
    <circle cx="12" cy="16" r="1" />
  </symbol>

  <symbol id="tabbar-icon6" viewBox="0 0 20 20">
    <path
      d="M5.83333 10C5.83333 10.9205 5.08714 11.6667 4.16667 11.6667C3.24619 11.6667 2.5 10.9205 2.5 10C2.5 9.07952 3.24619 8.33333 4.16667 8.33333C5.08714 8.33333 5.83333 9.07952 5.83333 10Z" />
    <path
      d="M11.6667 10C11.6667 10.9205 10.9205 11.6667 10 11.6667C9.07952 11.6667 8.33333 10.9205 8.33333 10C8.33333 9.07952 9.07952 8.33333 10 8.33333C10.9205 8.33333 11.6667 9.07952 11.6667 10Z" />
    <path
      d="M17.5 10C17.5 10.9205 16.7538 11.6667 15.8333 11.6667C14.9129 11.6667 14.1667 10.9205 14.1667 10C14.1667 9.07952 14.9129 8.33333 15.8333 8.33333C16.7538 8.33333 17.5 9.07952 17.5 10Z" />
  </symbol>


  <symbol id="share-icon" viewBox="0 0 20 20">
    <path
      d="M7.49967 10.0003C7.49967 11.1509 6.56693 12.0837 5.41634 12.0837C4.26575 12.0837 3.33301 11.1509 3.33301 10.0003C3.33301 8.84973 4.26575 7.91699 5.41634 7.91699C6.56693 7.91699 7.49967 8.84973 7.49967 10.0003Z" />
    <path d="M11.6667 5.41699L7.5 8.33366" stroke-linecap="round" />
    <path d="M11.6667 14.583L7.5 11.6663" stroke-linecap="round" />
    <path
      d="M15.8337 15.4163C15.8337 16.5669 14.9009 17.4997 13.7503 17.4997C12.5997 17.4997 11.667 16.5669 11.667 15.4163C11.667 14.2657 12.5997 13.333 13.7503 13.333C14.9009 13.333 15.8337 14.2657 15.8337 15.4163Z" />
    <path
      d="M15.8337 4.58333C15.8337 5.73393 14.9009 6.66667 13.7503 6.66667C12.5997 6.66667 11.667 5.73393 11.667 4.58333C11.667 3.43274 12.5997 2.5 13.7503 2.5C14.9009 2.5 15.8337 3.43274 15.8337 4.58333Z" />
  </symbol>

  <symbol id="copy-icon" viewBox="0 0 16 16">
    <g>
      <path
        d="M6.6976 9.33301C5.69363 8.32513 5.78406 6.60026 6.89959 5.48039L10.1314 2.23609C11.2469 1.11623 12.9651 1.02544 13.9691 2.03332C14.973 3.04119 14.8826 4.76605 13.7671 5.88591L12.1512 7.50807"
        stroke-opacity="0.88" stroke-linecap="round" />
      <path
        d="M9.30207 6.66699C10.3061 7.67487 10.2156 9.39971 9.10008 10.5196L7.48421 12.1417L5.86834 13.7639C4.7528 14.8838 3.03459 14.9746 2.03061 13.9667C1.02663 12.9588 1.11706 11.2339 2.2326 10.1141L3.84849 8.49189"
        stroke-opacity="0.88" stroke-linecap="round" />
    </g>
  </symbol>

  <symbol id="link-icon" viewBox="0 0 16 16">
    <g>
      <path d="M8.66797 7.33301L14.668 1.33301M14.668 1.33301H11.1055M14.668 1.33301V4.89551" stroke-linecap="round"
        stroke-linejoin="round" />
      <path
        d="M14.6654 7.99967C14.6654 11.1424 14.6654 12.7137 13.6891 13.69C12.7127 14.6663 11.1414 14.6663 7.9987 14.6663C4.856 14.6663 3.28465 14.6663 2.30834 13.69C1.33203 12.7137 1.33203 11.1424 1.33203 7.99967C1.33203 4.85698 1.33203 3.28563 2.30834 2.30932C3.28465 1.33301 4.856 1.33301 7.9987 1.33301"
        stroke-linecap="round" />
    </g>
  </symbol>


  <symbol id="user-icon" viewBox="0 0 20 20">
    <circle cx="9.99984" cy="5" r="3.33333" stroke-opacity="0.88" />
    <path
      d="M16.6668 14.5833C16.6668 16.6544 16.6668 18.3333 10.0002 18.3333C3.3335 18.3333 3.3335 16.6544 3.3335 14.5833C3.3335 12.5123 6.31826 10.8333 10.0002 10.8333C13.6821 10.8333 16.6668 12.5123 16.6668 14.5833Z"
      stroke-opacity="0.88" />
  </symbol>

  <symbol id="exit-icon" viewBox="0 0 20 20">
    <path d="M6.6665 9.99919L18.3332 9.99919M18.3332 9.99919L15.4165 7.49919M18.3332 9.99919L15.4165 12.4992"
      stroke-opacity="0.88" stroke-linecap="round" stroke-linejoin="round" />
    <path
      d="M14.166 5.83334C14.1559 4.02082 14.0756 3.03922 13.4352 2.3989C12.703 1.66667 11.5245 1.66667 9.16746 1.66667L8.33413 1.66667C5.97711 1.66667 4.7986 1.66667 4.06636 2.3989C3.33413 3.13114 3.33413 4.30965 3.33413 6.66667L3.33413 13.3333C3.33413 15.6904 3.33413 16.8689 4.06636 17.6011C4.7986 18.3333 5.97711 18.3333 8.33413 18.3333L9.16746 18.3333C11.5245 18.3333 12.703 18.3333 13.4352 17.6011C14.0756 16.9608 14.1559 15.9792 14.166 14.1667"
      stroke-opacity="0.88" stroke-linecap="round" />
  </symbol>

</svg>