<svg width="26" height="26" viewBox="0 0 26 26" fill="none" xmlns="http://www.w3.org/2000/svg">
<path d="M11.0044 15.4419C11.0044 15.4419 10.5 18.5 10.8002 18.5007C11.0608 18.5014 11.4002 18.2007 11.4002 18.2007L12.8416 16.7992L15.8402 19.0146C16.3921 19.3191 16.7904 19.1615 16.9278 18.5023L18.8963 9.22597C19.0979 8.41795 18.5883 8.05147 18.0604 8.29115L6.50137 12.7483C5.71236 13.0647 5.71696 13.5049 6.35755 13.7011L9.32385 14.6269L16.1912 10.2944C16.5153 10.0978 16.8129 10.2035 16.5687 10.4202L11.0044 15.4419Z" fill="#fff"/>
<path d="M13 25C6.37258 25 1 19.6274 1 13C1 6.37258 6.37258 1 13 1C19.6274 1 25 6.37258 25 13C25 19.6274 19.6274 25 13 25Z" stroke="#fff"/>
</svg>
