<svg width="16" height="16" viewBox="0 0 16 16" fill="none" xmlns="http://www.w3.org/2000/svg">
<path d="M8 16C12.4183 16 16 12.4183 16 8C16 3.58172 12.4183 0 8 0C3.58172 0 0 3.58172 0 8C0 12.4183 3.58172 16 8 16Z" fill="url(#paint0_linear_2128_5824)"/>
<path d="M6.53346 11.6668C6.27429 11.6668 6.31833 11.569 6.22894 11.3222L5.4668 8.81389L11.3335 5.3335" fill="#C8DAEA"/>
<path d="M6.5332 11.6665C6.7332 11.6665 6.82157 11.575 6.9332 11.4665L7.99987 10.4293L6.66934 9.62695" fill="#A9C9DD"/>
<path d="M6.6698 9.62733L9.8938 12.0093C10.2617 12.2123 10.5272 12.1072 10.6189 11.6677L11.9312 5.48349C12.0656 4.94481 11.7259 4.70049 11.3739 4.86028L3.66791 7.83168C3.1419 8.04266 3.14497 8.33612 3.57203 8.46688L5.54956 9.0841L10.1278 6.19577C10.3439 6.06471 10.5422 6.13517 10.3794 6.27966" fill="url(#paint1_linear_2128_5824)"/>
<defs>
<linearGradient id="paint0_linear_2128_5824" x1="6.0008" y1="0.6672" x2="2.0008" y2="10" gradientUnits="userSpaceOnUse">
<stop stop-color="#37AEE2"/>
<stop offset="1" stop-color="#1E96C8"/>
</linearGradient>
<linearGradient id="paint1_linear_2128_5824" x1="6.999" y1="8.49141" x2="7.85379" y2="11.2564" gradientUnits="userSpaceOnUse">
<stop stop-color="#EFF7FC"/>
<stop offset="1" stop-color="white"/>
</linearGradient>
</defs>
</svg>
