<svg width="16" height="16" viewBox="0 0 16 16" fill="none" xmlns="http://www.w3.org/2000/svg">
<path d="M0 7.68C0 4.05961 0 2.24942 1.12471 1.12471C2.24942 0 4.05961 0 7.68 0H8.32C11.9404 0 13.7506 0 14.8753 1.12471C16 2.24942 16 4.05961 16 7.68V8.32C16 11.9404 16 13.7506 14.8753 14.8753C13.7506 16 11.9404 16 8.32 16H7.68C4.05961 16 2.24942 16 1.12471 14.8753C0 13.7506 0 11.9404 0 8.32V7.68Z" fill="#0077FF"/>
<path d="M8.51351 11.5267C4.86684 11.5267 2.78686 9.0267 2.7002 4.8667H4.52686C4.58686 7.92003 5.9335 9.21335 7.00016 9.48002V4.8667H8.72021V7.50002C9.77355 7.38669 10.8801 6.1867 11.2534 4.8667H12.9735C12.6868 6.49337 11.4868 7.69335 10.6335 8.18669C11.4868 8.58669 12.8535 9.63336 13.3735 11.5267H11.4801C11.0735 10.26 10.0602 9.28002 8.72021 9.14669V11.5267H8.51351Z" fill="white"/>
</svg>
