<svg width="25" height="24" viewBox="0 0 25 24" fill="none" xmlns="http://www.w3.org/2000/svg">
<path d="M0.5 11.52C0.5 6.08942 0.5 3.37413 2.18706 1.68706C3.87413 0 6.58942 0 12.02 0H12.98C18.4106 0 21.1259 0 22.8129 1.68706C24.5 3.37413 24.5 6.08942 24.5 11.52V12.48C24.5 17.9106 24.5 20.6259 22.8129 22.3129C21.1259 24 18.4106 24 12.98 24H12.02C6.58942 24 3.87413 24 2.18706 22.3129C0.5 20.6259 0.5 17.9106 0.5 12.48V11.52Z" fill="#0077FF"/>
<path d="M13.27 17.29C7.80002 17.29 4.68005 13.54 4.55005 7.30005H7.29004C7.38004 11.88 9.4 13.82 11 14.22V7.30005H13.5801V11.25C15.1601 11.08 16.8199 9.28005 17.3799 7.30005H19.96C19.53 9.74005 17.7299 11.54 16.45 12.28C17.7299 12.88 19.7801 14.45 20.5601 17.29H17.72C17.11 15.39 15.5901 13.92 13.5801 13.72V17.29H13.27Z" fill="white"/>
</svg>
