<svg width="16" height="16" viewBox="0 0 16 16" fill="none" xmlns="http://www.w3.org/2000/svg">
<path d="M8 16C12.4183 16 16 12.4183 16 8C16 3.58172 12.4183 0 8 0C3.58172 0 0 3.58172 0 8C0 12.4183 3.58172 16 8 16Z" fill="#25D366"/>
<path fill-rule="evenodd" clip-rule="evenodd" d="M8.26382 12.4506H8.26185C7.4657 12.4503 6.6834 12.2506 5.98858 11.8716L3.4668 12.5331L4.14167 10.0681C3.72537 9.34661 3.50632 8.52827 3.50668 7.68985C3.50772 5.067 5.64174 2.93311 8.26378 2.93311C9.53634 2.93365 10.7307 3.42906 11.6289 4.32824C12.527 5.22738 13.0213 6.42255 13.0208 7.69361C13.0198 10.3159 10.8866 12.4495 8.26382 12.4506ZM6.10542 11.0104L6.2498 11.0961C6.85686 11.4563 7.55273 11.6469 8.26222 11.6472H8.26382C10.4431 11.6472 12.2168 9.87348 12.2176 7.69333C12.2181 6.63684 11.8072 5.64347 11.0607 4.8961C10.3142 4.14874 9.32146 3.73695 8.26538 3.73658C6.08444 3.73658 4.31072 5.51014 4.30986 7.69013C4.30955 8.43723 4.51859 9.16481 4.91438 9.79432L5.00839 9.94391L4.60896 11.403L6.10542 11.0104ZM10.4976 8.71779C10.5805 8.75786 10.6365 8.78491 10.6604 8.82482C10.6901 8.87437 10.6901 9.11236 10.5911 9.39006C10.492 9.6677 10.0171 9.9211 9.78876 9.95521C9.58399 9.98583 9.32484 9.9986 9.04011 9.90811C8.86747 9.85334 8.64609 9.78021 8.3625 9.65773C7.24819 9.17658 6.49514 8.09657 6.35282 7.89245C6.34284 7.87815 6.33587 7.86815 6.33198 7.86295L6.33102 7.86167C6.26812 7.77774 5.84664 7.21538 5.84664 6.63336C5.84664 6.08585 6.11558 5.79887 6.23938 5.66678C6.24786 5.65773 6.25566 5.6494 6.26265 5.64177C6.37159 5.52277 6.50038 5.49302 6.57961 5.49302C6.65884 5.49302 6.73817 5.49376 6.80742 5.49723C6.81597 5.49766 6.82486 5.49761 6.83405 5.49756C6.90331 5.49715 6.98967 5.49664 7.07486 5.70127C7.10763 5.78003 7.15559 5.89678 7.20617 6.01992C7.30845 6.26892 7.42145 6.54403 7.44133 6.58384C7.47105 6.64334 7.49086 6.71273 7.45124 6.79209C7.44529 6.80399 7.43979 6.81522 7.43454 6.82595C7.40478 6.8867 7.38289 6.93139 7.33238 6.99036C7.31252 7.01355 7.29199 7.03855 7.27147 7.06355C7.23058 7.11335 7.18969 7.16314 7.15408 7.19861C7.09458 7.25788 7.03263 7.32219 7.10197 7.44119C7.17131 7.56019 7.40986 7.94941 7.76321 8.2646C8.14305 8.6034 8.47319 8.7466 8.64052 8.81919C8.6732 8.83336 8.69967 8.84484 8.71909 8.85456C8.83791 8.91408 8.90725 8.90412 8.97659 8.82482C9.04593 8.74549 9.27372 8.47772 9.35295 8.35875C9.43217 8.23979 9.51144 8.25961 9.62038 8.29926C9.72935 8.33896 10.3137 8.62648 10.4326 8.68597C10.4558 8.69759 10.4775 8.70807 10.4976 8.71779Z" fill="#FDFDFD"/>
</svg>
