<svg width="26" height="26" viewBox="0 0 26 26" fill="none" xmlns="http://www.w3.org/2000/svg">
<path d="M1 13C1 6.37258 6.37258 1 13 1C19.6274 1 25 6.37258 25 13C25 19.6274 19.6274 25 13 25C6.37258 25 1 19.6274 1 13Z" stroke="#fff"/>
<path d="M13.0007 6.59961C11.2625 6.59961 11.0444 6.60721 10.3617 6.63828C9.6804 6.66948 9.21532 6.77734 8.80839 6.93561C8.38745 7.09908 8.03038 7.31775 7.67464 7.67362C7.31864 8.02936 7.09997 8.38643 6.93597 8.80723C6.7773 9.2143 6.6693 9.67951 6.63863 10.3606C6.6081 11.0433 6.6001 11.2615 6.6001 12.9997C6.6001 14.7378 6.60783 14.9553 6.63876 15.638C6.6701 16.3193 6.77797 16.7844 6.9361 17.1913C7.0997 17.6123 7.31837 17.9693 7.67424 18.3251C8.02985 18.6811 8.38692 18.9003 8.80759 19.0637C9.21479 19.222 9.68 19.3299 10.3612 19.3611C11.0439 19.3921 11.2619 19.3997 12.9999 19.3997C14.7382 19.3997 14.9557 19.3921 15.6383 19.3611C16.3197 19.3299 16.7853 19.222 17.1925 19.0637C17.6133 18.9003 17.9698 18.6811 18.3254 18.3251C18.6814 17.9693 18.9001 17.6123 19.0641 17.1915C19.2214 16.7844 19.3294 16.3192 19.3614 15.6381C19.3921 14.9554 19.4001 14.7378 19.4001 12.9997C19.4001 11.2615 19.3921 11.0434 19.3614 10.3607C19.3294 9.67937 19.2214 9.2143 19.0641 8.80737C18.9001 8.38643 18.6814 8.02936 18.3254 7.67362C17.9694 7.31762 17.6134 7.09895 17.1921 6.93561C16.7841 6.77734 16.3187 6.66948 15.6374 6.63828C14.9547 6.60721 14.7374 6.59961 12.9987 6.59961H13.0007Z" fill="#fff"/>
<path d="M16.4169 8.81667C15.9929 8.81667 15.6489 9.16028 15.6489 9.58441C15.6489 10.0084 15.9929 10.3524 16.4169 10.3524C16.8409 10.3524 17.1849 10.0084 17.1849 9.58441C17.1849 9.16041 16.8409 8.81641 16.4169 8.81641V8.81667Z" fill="#000"/>
<path d="M13 10.2129C14.5389 10.2129 15.7871 11.461 15.7871 13C15.7869 14.5386 14.5396 15.7849 13.001 15.7852C11.462 15.7852 10.2141 14.5386 10.2139 13C10.2139 11.4612 11.4613 10.2132 13 10.2129Z" stroke="#000"/>
</svg>
