<svg width="16" height="16" viewBox="0 0 16 16" fill="none" xmlns="http://www.w3.org/2000/svg">
<path d="M14.5 4V4.24009C14.257 4.24009 14.0598 4.28118 13.9085 4.36337C13.7571 4.44557 13.6127 4.59913 13.4751 4.82408C13.3834 4.97549 13.239 5.3367 13.0418 5.90771L10.4418 13H10.1667L8.04127 7.37419L5.92963 13H5.68201L2.91005 5.69358C2.7037 5.14852 2.57302 4.82624 2.51799 4.72675C2.42628 4.56236 2.30018 4.44124 2.13968 4.36337C1.98377 4.28118 1.77055 4.24009 1.5 4.24009V4H4.95291V4.24009H4.78783C4.5448 4.24009 4.35908 4.292 4.23069 4.39582C4.10229 4.49964 4.0381 4.62509 4.0381 4.77217C4.0381 4.92358 4.13898 5.27181 4.34074 5.81687L6.17725 10.7549L7.72487 6.5566L7.44974 5.81687L7.22963 5.22639C7.13333 5.01009 7.02557 4.81975 6.90635 4.65537C6.84674 4.57318 6.77337 4.50397 6.68624 4.44773C6.57161 4.36986 6.45697 4.31363 6.34233 4.27902C6.2552 4.25306 6.11764 4.24009 5.92963 4.24009V4H9.56138V4.24009H9.31376C9.05697 4.24009 8.86896 4.292 8.74974 4.39582C8.63051 4.49964 8.5709 4.64023 8.5709 4.81759C8.5709 5.03821 8.67407 5.42322 8.88042 5.9726L10.6688 10.7549L12.4434 5.90771C12.6452 5.3713 12.746 4.99928 12.746 4.79164C12.746 4.69214 12.7116 4.59913 12.6429 4.51262C12.5787 4.4261 12.4961 4.36554 12.3952 4.33093C12.221 4.27037 11.994 4.24009 11.7143 4.24009V4H14.5Z" fill="black"/>
</svg>
