<svg width="25" height="24" viewBox="0 0 25 24" fill="none" xmlns="http://www.w3.org/2000/svg">
<g clip-path="url(#clip0_2002_415)">
<path d="M0.5 12C0.5 5.3724 5.8712 0 12.5 0C19.1264 0 24.5 5.3724 24.5 12C24.5 18.6276 19.1264 24 12.5 24C5.8712 24 0.5 18.6276 0.5 12Z" fill="#FC3F1D"/>
<path d="M14.0663 6.74682H12.9432C10.8842 6.74682 9.80115 7.78691 9.80115 9.32037C9.80115 11.0538 10.5499 11.866 12.0875 12.9073L13.3577 13.7607L9.70756 19.2H6.97998L10.2557 14.3341C8.37173 12.9873 7.31424 11.6794 7.31424 9.46705C7.31424 6.69348 9.25296 4.79999 12.9298 4.79999H16.58V19.1867H14.0663V6.74682Z" fill="white"/>
</g>
<defs>
<clipPath id="clip0_2002_415">
<rect width="24" height="24" fill="white" transform="translate(0.5)"/>
</clipPath>
</defs>
</svg>
